<svg width="127" height="127" viewBox="0 0 127 127" fill="none" xmlns="http://www.w3.org/2000/svg">
<path d="M54.672 8.77802C54.5272 8.73462 52.386 9.13149 50.0187 10.7564C47.7991 12.2802 45.3271 14.554 43.2512 16.9916L43.3355 17.0581C41.814 18.9921 40.0789 21.2292 38.9667 23.4495C37.8542 25.6698 37.4055 27.7134 37.9772 29.5787L33.7086 30.8869C32.6807 27.5338 33.5791 24.2351 34.9746 21.4497C35.5223 20.3564 36.1536 19.3198 36.8097 18.3442C26.1387 18.3826 15.4608 17.6732 4.46484 16.5565V118.213C6.41452 116.444 8.46874 114.794 10.6164 113.271L11.0879 112.938L11.6617 112.875C17.6232 112.218 25.5079 111.225 32.7228 108.955C39.9375 106.685 46.349 103.15 49.747 97.7455L50.3815 96.7352L51.5744 96.702C74.1988 96.0702 86.3322 91.7753 99.6092 84.2617C99.6404 84.2381 99.6717 84.2123 99.7027 84.1885C97.9976 84.0952 96.1077 84.0273 94.1628 84.0354C89.0917 84.0568 83.72 84.7994 81.4214 86.2612L79.0257 82.4938C83.0208 79.9533 88.7715 79.5932 94.144 79.5706C98.0457 79.5542 101.755 79.8251 104.129 80.0163C105.85 78.0967 107.486 75.9228 108.886 73.6877C110.143 71.682 111.201 69.6232 111.996 67.6906C111.048 67.5542 110.162 67.2833 109.359 66.8825C107.304 65.8571 105.88 64.0431 105.203 62.0218C104.254 59.1861 104.685 55.8707 106.51 53.1474L90.4756 47.3555L90.5443 45.7189C90.6425 43.3818 88.96 39.0085 86.9226 37.1087C81.5727 32.12 75.2867 31.7558 67.56 28.6925L66.6785 28.3432L66.3181 27.4661C63.6734 21.0358 62.0864 16.5461 60.4964 13.6995C58.9059 10.8532 57.6253 9.65958 54.672 8.77802ZM53.2314 13.9424L55.6721 17.6809C48.4614 22.3884 48.2875 26.3469 47.9256 30.4925L43.4782 30.1051C43.8502 25.8367 44.9372 19.3572 53.2314 13.9424ZM29.6664 33.6035L31.6803 37.5882C21.1964 42.8857 16.6137 49.3052 15.339 55.0633C18.9024 52.2656 22.706 50.8009 27.7954 50.9805L31.5751 51.1139L29.6319 54.3584C25.3487 61.5106 24.038 64.9088 23.1232 69.1658C24.1196 68.7868 25.1093 68.5122 26.1293 68.4268C28.5552 68.2239 30.8774 68.9924 33.3487 70.3482L35.7051 71.6408L34.0013 73.7202C31.5263 76.7409 30.5371 78.6861 30.225 80.5563C30.1067 81.2648 30.1124 82.0382 30.1759 82.8714C30.8483 82.1773 31.56 81.5555 32.3939 81.0859C34.6574 79.8117 37.2916 79.641 40.6035 79.937L40.2064 84.3837C37.2547 84.12 35.7088 84.3435 34.5842 84.9768C33.4595 85.6101 32.3741 86.9111 30.8932 89.5384L28.1523 94.4036L26.7841 88.9897C25.9073 85.5195 25.335 82.7349 25.8212 79.8216C26.1898 77.6115 27.1691 75.5131 28.7982 73.1884C27.9494 72.9148 27.2167 72.8163 26.5018 72.8763C25.2011 72.9852 23.6314 73.6346 21.3015 75.1591L16.9942 77.9771L17.8802 72.9068C18.9426 66.8265 19.7502 62.9249 23.7311 55.67C20.2493 56.305 17.9231 58.2304 14.4522 61.9933L11.118 65.6073L10.5921 60.7185C9.64233 51.8985 14.7633 41.1343 29.6664 33.6035ZM65.3125 40.2949C69.7247 42.2425 75.0458 43.8422 79.4162 44.4167L80.3357 48.7863C79.3802 48.9872 78.5398 48.946 77.6416 48.8036C77.3036 51.0425 75.276 52.7069 72.9932 52.7069C70.4907 52.7069 68.2938 50.7076 68.2938 48.1438C68.2938 47.5361 68.4205 46.9616 68.642 46.4365C66.4468 45.5182 62.7591 44.7056 61.4988 42.7845C62.9364 42.1609 65.1587 40.1669 65.3125 40.2949ZM110.042 55.9097C109.11 57.4691 108.977 59.2288 109.437 60.6047C109.783 61.639 110.415 62.4197 111.352 62.8875C111.884 63.1529 112.544 63.3332 113.373 63.3397C113.448 62.9651 113.508 62.6035 113.548 62.2611C113.319 60.5762 111.922 58.1411 110.042 55.9097Z" fill="#F2637E"/>
</svg>
