<svg width="358" height="127" viewBox="0 0 358 127" fill="none" xmlns="http://www.w3.org/2000/svg">
<path d="M33.348 57.296L29.988 51.374L11.508 49.568L10.962 56.876H6.09L4.536 45.998H9.66C10.472 44.066 11.046 42.246 11.382 40.538C11.718 38.83 11.886 37.374 11.886 36.17C11.886 36.002 11.872 35.848 11.844 35.708C11.844 35.54 11.844 35.4 11.844 35.288L10.71 18.74H18.018L17.808 21.974L33.138 18.32L31.332 45.452L36.498 44.99L33.894 57.296H33.348ZM25.788 25.292L17.682 23.78L16.968 35.624C16.912 36.716 16.674 37.99 16.254 39.446C15.862 40.874 15.274 42.288 14.49 43.688C13.734 45.088 12.782 46.292 11.634 47.3L26.964 45.872L25.788 25.292ZM72.156 52.046L68.838 28.904L52.5 52.046H51.786L48.93 18.74H56.532L55.44 42.176L68.628 18.74H75.936L72.828 52.046H72.156ZM119.742 51.962L102.564 35.498L100.8 37.136L100.296 51.5H95.004L93.87 18.74H101.43L100.926 33.356L111.636 18.32L119.238 20.336L107.94 30.584L120.33 52.004L119.742 51.962ZM158.886 51.962L153.93 41.378L137.298 44.276L132.93 51.962H132.258L143.766 18.782L150.402 17.774L163.842 51.416L158.886 51.962ZM147.084 26.762L140.574 38.396L153.426 40.37L147.084 26.762ZM193.41 51.5L193.032 34.868C192.836 34.952 192.36 35.33 191.604 36.002C190.876 36.674 189.966 37.528 188.874 38.564C187.782 39.572 186.606 40.678 185.346 41.882C184.086 43.086 182.84 44.29 181.608 45.494C180.404 46.67 179.284 47.762 178.248 48.77C177.24 49.75 176.428 50.548 175.812 51.164C175.224 51.752 174.93 52.046 174.93 52.046H174.384L184.17 36.464C182.35 36.24 180.88 35.736 179.76 34.952C178.64 34.168 177.828 33.244 177.324 32.18C176.82 31.116 176.568 30.038 176.568 28.946C176.568 28.078 176.694 27.294 176.946 26.594C177.786 24.018 179.634 22.142 182.49 20.966C185.374 19.762 189.042 19.02 193.494 18.74L200.34 18.32L198.786 51.5H193.41ZM192.696 20.252C190.456 20.868 188.538 21.82 186.942 23.108C185.374 24.368 184.338 25.768 183.834 27.308C183.582 28.008 183.456 28.694 183.456 29.366C183.456 30.458 183.834 31.354 184.59 32.054C185.346 32.754 186.508 33.104 188.076 33.104C189.7 33.104 191.338 32.922 192.99 32.558L192.696 20.252ZM19.068 112.5L17.934 84.528L9.198 85.704V79.32L35.196 81.672V82.26L25.662 83.52L24.528 112.5H19.068ZM52.752 112.5L51.198 79.74H58.842L58.8 81C60.312 80.552 61.726 80.23 63.042 80.034C64.386 79.838 65.618 79.74 66.738 79.74C68.978 79.74 70.854 80.076 72.366 80.748C73.906 81.392 75.068 82.246 75.852 83.31C76.636 84.346 77.028 85.48 77.028 86.712C77.028 87.916 76.762 89.176 76.23 90.492C75.698 91.808 74.746 93.068 73.374 94.272C72.03 95.476 70.14 96.512 67.704 97.38C65.296 98.248 62.202 98.836 58.422 99.144L58.128 112.5H52.752ZM58.422 98.304C60.718 97.856 62.594 97.17 64.05 96.246C65.534 95.322 66.682 94.286 67.494 93.138C68.306 91.99 68.866 90.856 69.174 89.736C69.51 88.616 69.678 87.65 69.678 86.838C69.678 85.69 69.146 84.71 68.082 83.898C67.046 83.058 65.282 82.638 62.79 82.638C62.202 82.638 61.572 82.666 60.9 82.722C60.228 82.75 59.514 82.834 58.758 82.974L58.422 98.304ZM105.084 113.34C103.488 113.34 101.808 112.948 100.044 112.164C98.308 111.352 96.67 110.19 95.13 108.678C93.59 107.166 92.344 105.346 91.392 103.218C90.44 101.09 89.964 98.696 89.964 96.036C89.964 93.964 90.272 92.046 90.888 90.282C91.532 88.49 92.386 86.894 93.45 85.494C94.514 84.094 95.704 82.904 97.02 81.924C98.336 80.916 99.68 80.16 101.052 79.656C102.452 79.124 103.796 78.858 105.084 78.858C106.344 78.858 107.66 79.124 109.032 79.656C110.432 80.188 111.776 80.958 113.064 81.966C114.38 82.946 115.57 84.136 116.634 85.536C117.698 86.936 118.538 88.518 119.154 90.282C119.77 92.046 120.078 93.964 120.078 96.036C120.078 98.696 119.602 101.09 118.65 103.218C117.698 105.346 116.466 107.166 114.954 108.678C113.442 110.19 111.818 111.352 110.082 112.164C108.346 112.948 106.68 113.34 105.084 113.34ZM106.764 109.728C108.08 109.728 109.242 109.294 110.25 108.426C111.258 107.558 112.042 106.354 112.602 104.814C113.19 103.246 113.484 101.44 113.484 99.396C113.484 96.568 113.162 94.104 112.518 92.004C111.874 89.876 111.034 88.112 109.998 86.712C108.962 85.312 107.856 84.262 106.68 83.562C105.532 82.862 104.44 82.512 103.404 82.512C102.116 82.512 100.954 82.946 99.918 83.814C98.882 84.654 98.056 85.83 97.44 87.342C96.852 88.854 96.558 90.632 96.558 92.676C96.558 95.672 96.88 98.248 97.524 100.404C98.196 102.56 99.05 104.324 100.086 105.696C101.15 107.068 102.27 108.09 103.446 108.762C104.622 109.406 105.728 109.728 106.764 109.728ZM153.006 112.5L151.788 86.292L142.212 84.57L140.91 112.5H136.668L134.778 79.74H142.422L142.296 83.226L159.138 79.32L157.248 112.5H153.006ZM200.886 112.962L195.93 102.378L179.298 105.276L174.93 112.962H174.258L185.766 79.782L192.402 78.774L205.842 112.416L200.886 112.962ZM189.084 87.762L182.574 99.396L195.426 101.37L189.084 87.762Z" fill="white"/>
<path d="M285.672 8.77802C285.527 8.73462 283.386 9.13149 281.019 10.7564C278.799 12.2802 276.327 14.554 274.251 16.9916L274.336 17.0581C272.814 18.9921 271.079 21.2292 269.967 23.4495C268.854 25.6698 268.405 27.7134 268.977 29.5787L264.709 30.8869C263.681 27.5338 264.579 24.2351 265.975 21.4497C266.522 20.3564 267.154 19.3198 267.81 18.3442C257.139 18.3826 246.461 17.6732 235.465 16.5565V118.213C237.415 116.444 239.469 114.794 241.616 113.271L242.088 112.938L242.662 112.875C248.623 112.218 256.508 111.225 263.723 108.955C270.938 106.685 277.349 103.15 280.747 97.7455L281.382 96.7352L282.574 96.702C305.199 96.0702 317.332 91.7753 330.609 84.2617C330.64 84.2381 330.672 84.2123 330.703 84.1885C328.998 84.0952 327.108 84.0273 325.163 84.0354C320.092 84.0568 314.72 84.7994 312.421 86.2612L310.026 82.4938C314.021 79.9533 319.772 79.5932 325.144 79.5706C329.046 79.5542 332.755 79.8251 335.129 80.0163C336.85 78.0967 338.486 75.9228 339.886 73.6877C341.143 71.682 342.201 69.6232 342.996 67.6906C342.048 67.5542 341.162 67.2833 340.359 66.8825C338.304 65.8571 336.88 64.0431 336.203 62.0218C335.254 59.1861 335.685 55.8707 337.51 53.1474L321.476 47.3555L321.544 45.7189C321.643 43.3818 319.96 39.0085 317.923 37.1087C312.573 32.12 306.287 31.7558 298.56 28.6925L297.678 28.3432L297.318 27.4661C294.673 21.0358 293.086 16.5461 291.496 13.6995C289.906 10.8532 288.625 9.65958 285.672 8.77802ZM284.231 13.9424L286.672 17.6809C279.461 22.3884 279.288 26.3469 278.926 30.4925L274.478 30.1051C274.85 25.8367 275.937 19.3572 284.231 13.9424ZM260.666 33.6035L262.68 37.5882C252.196 42.8857 247.614 49.3052 246.339 55.0633C249.902 52.2656 253.706 50.8009 258.795 50.9805L262.575 51.1139L260.632 54.3584C256.349 61.5106 255.038 64.9088 254.123 69.1658C255.12 68.7868 256.109 68.5122 257.129 68.4268C259.555 68.2239 261.877 68.9924 264.349 70.3482L266.705 71.6408L265.001 73.7202C262.526 76.7409 261.537 78.6861 261.225 80.5563C261.107 81.2648 261.112 82.0382 261.176 82.8714C261.848 82.1773 262.56 81.5555 263.394 81.0859C265.657 79.8117 268.292 79.641 271.604 79.937L271.206 84.3837C268.255 84.12 266.709 84.3435 265.584 84.9768C264.46 85.6101 263.374 86.9111 261.893 89.5384L259.152 94.4036L257.784 88.9897C256.907 85.5195 256.335 82.7349 256.821 79.8216C257.19 77.6115 258.169 75.5131 259.798 73.1884C258.949 72.9148 258.217 72.8163 257.502 72.8763C256.201 72.9852 254.631 73.6346 252.302 75.1591L247.994 77.9771L248.88 72.9068C249.943 66.8265 250.75 62.9249 254.731 55.67C251.249 56.305 248.923 58.2304 245.452 61.9933L242.118 65.6073L241.592 60.7185C240.642 51.8985 245.763 41.1343 260.666 33.6035ZM296.312 40.2949C300.725 42.2425 306.046 43.8422 310.416 44.4167L311.336 48.7863C310.38 48.9872 309.54 48.946 308.642 48.8036C308.304 51.0425 306.276 52.7069 303.993 52.7069C301.491 52.7069 299.294 50.7076 299.294 48.1438C299.294 47.5361 299.421 46.9616 299.642 46.4365C297.447 45.5182 293.759 44.7056 292.499 42.7845C293.936 42.1609 296.159 40.1669 296.312 40.2949ZM341.042 55.9097C340.11 57.4691 339.977 59.2288 340.437 60.6047C340.783 61.639 341.415 62.4197 342.352 62.8875C342.884 63.1529 343.544 63.3332 344.373 63.3397C344.448 62.9651 344.508 62.6035 344.548 62.2611C344.319 60.5762 342.922 58.1411 341.042 55.9097Z" fill="#F2637E"/>
</svg>
