<svg width="130" height="130" viewBox="0 0 130 130" fill="none" xmlns="http://www.w3.org/2000/svg">
<g clip-path="url(#clip0_28_3701)">
<path fill-rule="evenodd" clip-rule="evenodd" d="M123.5 81.6291C123.261 81.2074 122.865 80.897 122.399 80.7652C121.932 80.6334 121.433 80.6908 121.008 80.9249C110.175 86.6666 99.3415 92.0833 88.5082 98.0416C81.3582 101.996 74.3707 106.221 67.329 110.392C62.6707 113.371 57.4707 116.242 52.5957 119.437C49.273 121.582 46.1705 124.049 43.3332 126.804C43.1792 126.951 43.0565 127.127 42.9727 127.323C42.8889 127.518 42.8457 127.729 42.8457 127.942C42.8457 128.154 42.8889 128.365 42.9727 128.56C43.0565 128.756 43.1792 128.932 43.3332 129.079C43.6278 129.373 44.0272 129.539 44.4436 129.539C44.8601 129.539 45.2595 129.373 45.554 129.079C48.3944 126.74 51.461 124.689 54.7082 122.958C59.7999 120.196 65.5415 117.812 70.1457 115.267C77.2415 111.204 84.4457 107.358 91.4332 103.242C101.996 97.0666 112.342 90.5124 122.796 84.1208C123.217 83.8817 123.528 83.486 123.66 83.0196C123.791 82.5531 123.734 82.0535 123.5 81.6291Z" fill="white"/>
<path fill-rule="evenodd" clip-rule="evenodd" d="M86.2333 31.0377C85.3755 30.413 84.3689 30.0242 83.3138 29.9101C82.2588 29.7961 81.1923 29.9608 80.2208 30.3877C79.854 30.2507 79.4501 30.2507 79.0833 30.3877C76.1348 31.2102 73.496 32.8877 71.5 35.2086C70.2377 36.7641 69.4315 38.6391 69.1708 40.6252C62.6167 41.8711 55.9542 42.9544 49.4 44.3086C43.9833 45.3919 39.0542 46.5294 33.9625 47.9919C28.8917 49.5462 23.9021 51.354 19.0125 53.4086C13.5958 55.5211 12.0792 57.3086 17.8208 58.3919C19.5 57.8502 21.1792 57.3086 22.9125 56.8752C26.2167 55.9544 29.6292 55.2502 32.9875 54.4377L42.9 52.0002C51.7292 49.6711 60.5042 47.1794 69.225 44.6877C69.9835 47.0507 71.558 49.0667 73.6667 50.3752C75.2059 51.3327 76.9516 51.9084 78.7583 52.0544C78.1083 56.5502 77.6208 61.5877 76.5375 66.3544C75.8946 69.5338 74.7422 72.5884 73.125 75.4002C72.8472 75.8215 72.4766 76.1736 72.0417 76.4294C71.0125 77.1336 69.8208 77.5669 68.7375 78.2169L60.45 83.6336C56.3875 86.6669 52.2167 89.5919 48.1542 92.6252C44.0917 95.6586 40.0833 99.0169 36.1292 102.213C33.9083 104 31.6333 105.734 29.4667 107.629C25.7833 111.313 26.3792 112.45 31.4167 110.934C33.8542 109.254 36.4 107.629 38.8917 106.004C43.3333 102.917 47.3958 100.425 51.5667 97.5002C55.7375 94.5752 59.9083 91.7044 64.025 88.6711L71.825 83.2544C73.3022 82.4231 74.7145 81.4816 76.05 80.4377C76.7706 79.7863 77.3751 79.017 77.8375 78.1627C79.5253 74.7572 80.6416 71.0972 81.1417 67.3294C81.9542 61.9127 82.1167 56.4961 82.4958 51.8377C82.9174 51.7792 83.3338 51.6886 83.7417 51.5669C86.3946 50.557 88.6023 48.6373 89.9708 46.1502C91.2662 43.5993 91.4998 40.6395 90.6208 37.9169C89.9565 35.2029 88.4141 32.7845 86.2333 31.0377ZM85.0417 43.3336C84.2112 44.5652 82.9899 45.4812 81.575 45.9336C80.7662 46.183 79.914 46.2588 79.0739 46.1561C78.2338 46.0534 77.4249 45.7746 76.7 45.3377C76.0159 44.9312 75.4299 44.3788 74.9835 43.7201C74.537 43.0613 74.2413 42.3123 74.1172 41.5263C73.9931 40.7402 74.0437 39.9365 74.2654 39.1722C74.4871 38.408 74.8745 37.702 75.4 37.1044C76.5792 35.6567 78.0821 34.5063 79.7875 33.7461C80.046 33.8836 80.3343 33.9555 80.6271 33.9555C80.9199 33.9555 81.2082 33.8836 81.4667 33.7461C81.9822 33.5975 82.5323 33.6231 83.0318 33.8189C83.5312 34.0148 83.9521 34.37 84.2292 34.8294C85.1379 35.9856 85.7012 37.3752 85.8542 38.8377C86.0273 39.6033 86.0445 40.3959 85.9049 41.1683C85.7654 41.9406 85.4718 42.677 85.0417 43.3336Z" fill="#F2637E"/>
<path fill-rule="evenodd" clip-rule="evenodd" d="M122.092 48.2625C121.61 46.4007 120.957 44.5874 120.142 42.8458C119.004 40.3542 117.704 37.9708 116.404 35.5875C111.819 26.8964 105.688 19.1137 98.3124 12.6208C90.7086 5.90086 81.2842 1.58448 71.2291 0.216671C65.0175 -0.450641 58.735 0.233036 52.8124 2.22084C47.0317 4.10577 41.5573 6.82473 36.5624 10.2917C25.6665 17.6889 17.0848 28.0169 11.8082 40.0833C6.61711 52.0066 5.07163 65.1998 7.36656 78C8.9302 85.9029 11.5158 93.5687 15.0582 100.804C18.5927 108.021 23.1138 114.712 28.4916 120.683C30.5752 123.527 32.994 126.11 35.6957 128.375C37.1175 129.479 38.8796 130.054 40.6791 130C41.0957 129.959 41.4821 129.765 41.7627 129.454C42.0433 129.144 42.1977 128.739 42.1957 128.321C42.1678 127.899 41.9769 127.505 41.6635 127.222C41.35 126.939 40.9387 126.789 40.5166 126.804C39.0068 126.693 37.5948 126.016 36.5624 124.908C29.4235 117.303 23.4706 108.666 18.9041 99.2875C15.7221 92.3921 13.4637 85.107 12.1874 77.6208C10.4121 65.733 12.1636 53.5855 17.2249 42.6833C22.0995 31.7533 29.8971 22.3812 39.7582 15.6C44.3382 12.4652 49.3337 9.98567 54.5999 8.23334C59.8248 6.47466 65.3639 5.84689 70.8499 6.39167C79.826 7.54534 88.2648 11.3127 95.1166 17.225C102.056 23.0448 107.907 30.0508 112.396 37.9167C113.696 40.1917 115.05 42.4667 116.133 44.7958C116.904 46.2817 117.522 47.8426 117.975 49.4542C119.054 53.0914 119.566 56.8734 119.492 60.6667C119.36 66.542 118.726 72.3954 117.596 78.1625C117.553 78.3937 117.556 78.631 117.605 78.8609C117.654 79.0908 117.748 79.3088 117.882 79.5025C118.015 79.6961 118.185 79.8616 118.382 79.9895C118.579 80.1174 118.8 80.2052 119.031 80.2479C119.262 80.2906 119.5 80.2873 119.73 80.2383C119.959 80.1892 120.177 80.0954 120.371 79.9621C120.565 79.8288 120.73 79.6587 120.858 79.4614C120.986 79.2642 121.074 79.0437 121.117 78.8125C122.44 72.8635 123.237 66.8096 123.5 60.7208C123.663 56.5207 123.189 52.3201 122.092 48.2625Z" fill="white"/>
</g>
<defs>
<clipPath id="clip0_28_3701">
<rect width="130" height="130" fill="white"/>
</clipPath>
</defs>
</svg>
