<svg width="36" height="36" viewBox="0 0 36 36" fill="none" xmlns="http://www.w3.org/2000/svg">
<path fill-rule="evenodd" clip-rule="evenodd" d="M32.428 28.3549C32.344 28.0948 32.2211 27.849 32.0635 27.6259C31.7935 27.2209 31.4155 26.8429 31.1455 26.5054C30.538 25.7359 29.917 24.9799 29.2555 24.2509C28.8305 23.7765 28.3798 23.3258 27.9055 22.9009C27.5263 22.5201 27.1153 22.1723 26.677 21.8614C26.2999 21.6049 25.8625 21.4514 25.408 21.4159C24.9494 21.4188 24.5041 21.5704 24.139 21.8479C23.329 22.3744 22.2895 23.4409 21.3445 23.9944C21.007 24.1834 20.6965 24.3994 20.467 24.1294C19.117 22.6309 18.064 21.2404 16.849 19.8229C16.3225 19.2154 15.796 18.6214 15.229 18.0004C14.662 17.3794 13.501 16.2859 12.691 15.3004C12.1836 14.7272 11.7896 14.063 11.53 13.3429C11.53 13.0999 11.5975 12.8569 11.8 12.5734C12.5705 11.6264 13.4049 10.7333 14.2975 9.90036C14.7599 9.4782 15.0964 8.93614 15.2695 8.33436C15.3136 8.09488 15.2756 7.84749 15.1615 7.63236C14.9725 7.30836 14.6215 6.98436 14.473 6.75486C14.095 6.22836 13.717 5.71536 13.3255 5.21586C12.691 4.50036 12.0835 3.73086 11.4895 2.98836C11.4206 2.90361 11.3214 2.84911 11.2129 2.8365C11.1045 2.82389 10.9954 2.85416 10.909 2.92086C10.8347 2.99657 10.7932 3.09835 10.7932 3.20436C10.7932 3.31037 10.8347 3.41215 10.909 3.48786C11.503 4.24386 12.0835 4.97286 12.6505 5.72886C13.0285 6.22836 13.393 6.74136 13.744 7.25436C13.8655 7.45686 14.1355 7.71336 14.311 7.98336C14.4865 8.25336 14.446 8.13186 14.419 8.21286C14.1841 8.75792 13.8004 9.22578 13.312 9.56286C12.4435 10.2639 11.6394 11.041 10.909 11.8849C10.7083 12.112 10.5635 12.3828 10.4862 12.6758C10.4088 12.9688 10.401 13.2758 10.4635 13.5724C10.7664 14.4311 11.224 15.2273 11.8135 15.9214C12.61 16.9474 13.6225 17.9194 14.3245 18.7294C15.0265 19.5394 15.391 19.9444 15.877 20.5519C17.0785 21.9964 18.1585 23.4139 19.414 24.9394C19.6304 25.2148 19.9296 25.4133 20.2675 25.5057C20.6054 25.598 20.964 25.5793 21.2905 25.4524C22.2835 24.9956 23.1955 24.38 23.9905 23.6299C24.2786 23.3917 24.5806 23.1708 24.895 22.9684C25.03 22.8874 25.1245 22.8064 25.219 22.8199C25.4252 22.8436 25.6212 22.923 25.786 23.0494C26.1473 23.3181 26.4859 23.6161 26.7985 23.9404C27.2732 24.3649 27.7239 24.8156 28.1485 25.2904C28.783 26.0059 29.377 26.7484 29.9575 27.4909C30.1735 27.7609 30.4705 28.0714 30.7135 28.3954C30.833 28.5289 30.9248 28.6849 30.9835 28.8544C31.1725 29.4484 30.808 29.9614 30.322 30.4204C29.4206 31.2207 28.3499 31.8069 27.19 32.1349C23.869 33.0808 20.3172 32.7832 17.2 31.2979C14.0694 29.7332 11.3081 27.5196 9.09995 24.8044C6.23867 21.6868 4.5618 17.6642 4.36145 13.4374C4.19945 8.22636 6.61595 3.98736 9.23495 2.63736C9.28991 2.60634 9.33822 2.56479 9.37712 2.5151C9.41602 2.4654 9.44476 2.40853 9.46168 2.34773C9.4786 2.28693 9.48339 2.22339 9.47575 2.16075C9.46812 2.0981 9.44823 2.03757 9.4172 1.98261C9.38618 1.92765 9.34463 1.87934 9.29494 1.84044C9.24524 1.80154 9.18837 1.77281 9.12757 1.75588C9.06677 1.73896 9.00324 1.73418 8.94059 1.74181C8.87794 1.74944 8.81741 1.76934 8.76245 1.80036C5.90045 3.15036 3.07895 7.78086 3.17345 13.4644C3.32466 17.9552 5.03876 22.2524 8.01995 25.6144C10.3156 28.535 13.2113 30.9289 16.5115 32.6344C19.9435 34.3012 23.8677 34.6519 27.541 33.6199C28.9572 33.2085 30.2628 32.4842 31.3615 31.5004C31.8282 31.1385 32.1781 30.6473 32.3677 30.088C32.5574 29.5287 32.5783 28.926 32.428 28.3549Z" fill="white"/>
<path d="M19.9 7.95626C20.0407 7.5826 20.1535 7.19905 20.2375 6.80876C20.2798 6.65471 20.3024 6.49597 20.305 6.33626C20.3254 6.17941 20.3254 6.0206 20.305 5.86376C20.305 5.47226 20.3995 4.51376 20.305 4.05476C20.3247 3.94556 20.3002 3.83302 20.2369 3.74188C20.1736 3.65075 20.0767 3.58848 19.9675 3.56876C19.9125 3.55703 19.8556 3.55652 19.8004 3.56727C19.7452 3.57802 19.6926 3.5998 19.646 3.63131C19.5994 3.66281 19.5596 3.7034 19.529 3.75065C19.4984 3.79789 19.4777 3.85081 19.468 3.90626C19.1711 4.50344 18.9185 5.1216 18.712 5.75576C18.6763 5.92475 18.6537 6.09627 18.6445 6.26876C18.6312 6.43048 18.6312 6.59303 18.6445 6.75476C18.6445 7.14626 18.8065 7.49726 18.874 7.88876C18.8685 7.95085 18.8753 8.01343 18.894 8.07289C18.9127 8.13235 18.9431 8.18751 18.9832 8.23519C19.0234 8.28288 19.0726 8.32215 19.128 8.35073C19.1834 8.37932 19.2439 8.39666 19.306 8.40176C19.3751 8.42016 19.4474 8.42265 19.5176 8.40904C19.5878 8.39543 19.654 8.36607 19.7112 8.32318C19.7683 8.28029 19.8151 8.22499 19.8478 8.16143C19.8805 8.09787 19.8983 8.02772 19.9 7.95626Z" fill="#F2637E"/>
<path d="M25.9613 8.32058C25.6373 8.55008 25.2863 8.64458 24.9488 8.84708C24.8055 8.92899 24.6699 9.02389 24.5438 9.13058C24.4124 9.24172 24.2905 9.36364 24.1793 9.49508C23.8971 9.82507 23.6484 10.1823 23.4368 10.5616C23.3491 10.6565 23.3027 10.7823 23.3077 10.9114C23.3128 11.0405 23.369 11.1624 23.4638 11.2501C23.5587 11.3378 23.6846 11.3842 23.8137 11.3792C23.9428 11.3741 24.0646 11.318 24.1523 11.2231C24.4898 10.9936 24.8543 10.8721 25.1918 10.6561C25.4276 10.5169 25.6453 10.3491 25.8398 10.1566C26.1859 9.76159 26.4518 9.30308 26.6228 8.80658C26.6511 8.7201 26.6514 8.62689 26.6236 8.54026C26.5958 8.45362 26.5414 8.37797 26.468 8.32409C26.3947 8.27022 26.3062 8.24088 26.2153 8.24024C26.1243 8.23961 26.0354 8.26773 25.9613 8.32058Z" fill="#F2637E"/>
<path d="M29.6064 16.394C29.1219 16.34 28.6329 16.34 28.1484 16.394C27.57 16.4803 26.9974 16.6021 26.4339 16.7585C26.37 16.7636 26.3077 16.7813 26.2507 16.8105C26.1937 16.8398 26.143 16.8801 26.1016 16.929C26.0602 16.9779 26.0288 17.0346 26.0094 17.0957C25.99 17.1568 25.9828 17.2211 25.9884 17.285C25.9935 17.3471 26.0108 17.4076 26.0394 17.463C26.068 17.5184 26.1073 17.5676 26.155 17.6078C26.2026 17.6479 26.2578 17.6783 26.3173 17.697C26.3767 17.7157 26.4393 17.7225 26.5014 17.717C27.0819 17.717 27.6354 17.8925 28.2159 17.933C28.6022 17.9663 28.9906 17.9663 29.3769 17.933C30.0466 17.8546 30.7098 17.7283 31.3614 17.555C31.4736 17.548 31.5787 17.4976 31.6543 17.4144C31.7299 17.3312 31.7701 17.2218 31.7664 17.1095C31.763 17.0527 31.7483 16.9972 31.7234 16.9461C31.6984 16.895 31.6636 16.8493 31.621 16.8116C31.5784 16.774 31.5287 16.7452 31.4749 16.7268C31.4211 16.7084 31.3641 16.7008 31.3074 16.7045C30.7134 16.6505 30.1869 16.4615 29.6064 16.394Z" fill="#F2637E"/>
</svg>
