<svg width="36" height="37" viewBox="0 0 36 37" fill="none" xmlns="http://www.w3.org/2000/svg">
<path d="M9.91974 20.9835C9.19074 21.9015 8.39424 22.725 7.62474 23.5755C6.85524 24.426 6.09924 25.317 5.30274 26.154L4.45224 27.0585C3.46674 27.8415 3.60174 28.2465 5.15424 27.936C6.29792 27.0124 7.39289 26.0301 8.43474 24.993C8.90724 24.507 9.36624 23.994 9.78474 23.4675C10.2032 22.941 10.6082 22.374 10.9862 21.7935L11.5397 20.7675C11.7017 19.6875 11.3642 19.4985 10.5812 20.079L9.91974 20.9835Z" fill="#F2637E"/>
<path d="M26.3897 22.6577C26.0522 22.3067 25.7012 21.9557 25.3637 21.5912C24.88 21.0945 24.429 20.5669 24.0137 20.0117C23.1767 19.3502 22.6637 19.2827 23.1227 20.7272C23.6715 21.7481 24.3277 22.7076 25.0802 23.5892C25.8258 24.4224 26.6239 25.207 27.4697 25.9382L29.4002 27.4907C31.0337 28.1117 31.0202 27.6122 30.2372 26.6132C29.4947 25.8302 28.7657 25.0472 28.0097 24.2777L26.3897 22.6577Z" fill="#F2637E"/>
<path d="M33.4502 21.4157C33.3287 18.6482 32.9372 15.9077 32.7887 13.1132C32.7887 12.1277 33.0317 10.5212 32.8562 9.23866C32.8063 8.54208 32.5261 7.8819 32.0597 7.36216C31.4393 6.80307 30.6613 6.44943 29.8322 6.34966C28.2068 6.19615 26.5705 6.19615 24.9452 6.34966C23.2982 6.34966 21.6377 6.34966 19.9772 6.26866C18.3167 6.18766 16.6427 6.09316 15.0092 5.97166C13.3757 5.85016 11.8502 5.60716 10.1762 5.62066C7.87371 5.7505 5.58257 6.03464 3.31815 6.47116C2.68746 6.58548 2.11801 6.92045 1.71165 7.41616C1.33145 7.93801 1.10256 8.55462 1.05015 9.19816C1.00709 10.502 1.07484 11.8072 1.25265 13.0997C1.38765 15.8942 1.32015 18.6752 1.38765 21.4697C1.38765 22.6712 1.46865 23.8862 1.56315 25.0877C1.61909 26.0912 1.77741 27.0863 2.03565 28.0577C2.22258 28.8193 2.64262 29.5037 3.23715 30.0152C3.90484 30.4653 4.66688 30.7562 5.46465 30.8657C7.10661 31.0259 8.75598 31.098 10.4057 31.0817C12.7817 31.2572 15.1712 31.3382 17.5607 31.3247C19.9502 31.3112 22.3667 31.1762 24.7427 30.9197C25.9982 30.7847 27.4427 30.7712 28.7927 30.5687C29.4099 30.4857 30.0164 30.3363 30.6017 30.1232C31.4315 29.7818 32.1116 29.1544 32.5187 28.3547C33.0475 27.3304 33.3643 26.2101 33.4502 25.0607C33.5175 23.8466 33.5175 22.6297 33.4502 21.4157ZM2.00865 10.0217C2.0137 9.31081 2.1463 8.60665 2.40015 7.94266C2.68019 7.61339 3.06742 7.39348 3.49365 7.32166C5.68726 6.91935 7.90701 6.67572 10.1357 6.59266C11.7422 6.59266 13.3892 6.80866 14.8742 6.94366C16.3592 7.07866 18.2087 7.22716 19.8827 7.32166C21.5567 7.41616 23.2307 7.47016 24.9047 7.49716C26.2534 7.41582 27.6059 7.41582 28.9547 7.49716C29.7229 7.51145 30.4642 7.78232 31.0607 8.26666C31.4029 8.72855 31.5616 9.30097 31.5062 9.87316V10.1297C30.9392 10.6697 30.3722 11.1827 29.7782 11.6822C27.2672 13.8017 24.5942 15.7322 22.1777 17.9327C21.4622 18.6077 20.4767 19.7147 19.4777 20.5652C18.9598 21.0551 18.3218 21.3997 17.6282 21.5642C17.0772 21.5308 16.5538 21.3119 16.1432 20.9432C15.1712 20.2547 8.04315 15.0302 5.34315 13.0322C4.22265 12.1817 2.10315 10.0487 2.00865 10.0217ZM31.8572 24.9527C31.8277 26.2357 31.3501 27.4679 30.5072 28.4357C30.1885 28.7429 29.7618 28.9126 29.3192 28.9082C28.9047 29.0021 28.4856 29.0742 28.0637 29.1242C26.9162 29.2592 25.7282 29.2727 24.6617 29.3942C22.3262 29.6372 19.9772 29.7722 17.6282 29.7992C15.2792 29.8262 12.9167 29.7992 10.5677 29.6507C9.43365 29.5832 7.86765 29.7317 6.40965 29.6507C5.87187 29.592 5.34218 29.4743 4.83015 29.2997C3.25065 29.2997 2.96715 26.5997 2.80515 25.0337C2.68365 23.8457 2.61615 22.6577 2.56215 21.4832C2.40015 18.6887 2.40015 15.8942 2.25165 13.0997C2.25165 12.5867 2.13015 11.9117 2.06265 11.1962C2.88771 12.1681 3.79071 13.0711 4.76265 13.8962C6.63915 15.4757 8.70465 16.8797 10.6487 18.3782C14.5502 21.4967 14.5502 21.8342 15.7517 22.5497C16.3582 22.9625 17.0848 23.162 17.8172 23.1167C18.5941 22.9951 19.3278 22.6793 19.9502 22.1987C20.0852 22.0907 19.9502 22.4147 23.8247 18.4052C25.9712 16.3397 28.3067 14.4767 30.5747 12.4652C30.9257 12.1547 31.2497 11.8307 31.5737 11.5067C31.5129 12.0626 31.4814 12.6214 31.4792 13.1807C31.5872 15.9617 31.9382 18.7022 32.0327 21.4697C32.0348 22.6329 31.9762 23.7955 31.8572 24.9527Z" fill="white"/>
</svg>
