<svg width="24" height="25" viewBox="0 0 24 25" fill="none" xmlns="http://www.w3.org/2000/svg">
<path d="M14.5 11.8999H9.5C9.09 11.8999 8.75 11.5599 8.75 11.1499C8.75 10.7399 9.09 10.3999 9.5 10.3999H14.5C14.91 10.3999 15.25 10.7399 15.25 11.1499C15.25 11.5599 14.91 11.8999 14.5 11.8999Z" fill="white"/>
<path d="M12 14.46C11.59 14.46 11.25 14.12 11.25 13.71V8.70996C11.25 8.29996 11.59 7.95996 12 7.95996C12.41 7.95996 12.75 8.29996 12.75 8.70996V13.71C12.75 14.12 12.41 14.46 12 14.46Z" fill="white"/>
<path d="M19.0698 23.25C18.5598 23.25 17.9998 23.1 17.4598 22.79L12.5798 20.08C12.2898 19.92 11.7198 19.92 11.4298 20.08L6.54982 22.79C5.55982 23.34 4.54982 23.4 3.77982 22.94C3.00982 22.49 2.56982 21.58 2.56982 20.45V6.36C2.56982 3.82 4.63982 1.75 7.17982 1.75H16.8298C19.3698 1.75 21.4398 3.82 21.4398 6.36V20.45C21.4398 21.58 20.9998 22.49 20.2298 22.94C19.8798 23.15 19.4798 23.25 19.0698 23.25ZM11.9998 18.46C12.4698 18.46 12.9298 18.56 13.2998 18.77L18.1798 21.48C18.6898 21.77 19.1598 21.83 19.4598 21.65C19.7598 21.47 19.9298 21.04 19.9298 20.45V6.36C19.9298 4.65 18.5298 3.25 16.8198 3.25H7.17982C5.46982 3.25 4.06982 4.65 4.06982 6.36V20.45C4.06982 21.04 4.23982 21.48 4.53982 21.65C4.83982 21.82 5.30982 21.77 5.81982 21.48L10.6998 18.77C11.0698 18.56 11.5298 18.46 11.9998 18.46Z" fill="white"/>
</svg>
