<svg width="36" height="37" viewBox="0 0 36 37" fill="none" xmlns="http://www.w3.org/2000/svg">
<path fill-rule="evenodd" clip-rule="evenodd" d="M8.9552 16.8263C9.47658 17.8122 10.0676 18.7596 10.7237 19.6613C11.0601 20.1297 11.4206 20.5803 11.8037 21.0113C12.6677 21.9293 13.6127 22.7798 14.5037 23.7113C14.9897 24.2243 15.4352 24.7913 15.9347 25.3043C16.1519 25.5462 16.3865 25.7718 16.6367 25.9793C16.7192 26.0562 16.8277 26.0989 16.9405 26.0989C17.0532 26.0989 17.1617 26.0562 17.2442 25.9793C17.3242 25.8985 17.369 25.7893 17.369 25.6756C17.369 25.5618 17.3242 25.4527 17.2442 25.3718C17.0282 25.1693 16.8257 24.9668 16.6367 24.7508C16.1642 24.2108 15.7322 23.6303 15.2867 23.1038C14.3552 22.0508 13.4372 21.2003 12.6002 20.2283C12.2629 19.8365 11.9475 19.4263 11.6552 18.9998C11.0633 18.1422 10.5397 17.2394 10.0892 16.2998C9.63654 15.373 9.30097 14.3935 9.09021 13.3838C8.97706 12.8147 8.9183 12.2361 8.9147 11.6558C8.89727 11.1076 8.97025 10.5603 9.1307 10.0358C9.65427 8.57299 10.6299 7.31479 11.9163 6.44344C13.2027 5.5721 14.733 5.13286 16.2857 5.18933C17.8335 5.06739 19.3786 5.45708 20.6834 6.29852C21.9882 7.13996 22.9807 8.38658 23.5082 9.84683C23.7001 10.4449 23.8357 11.0596 23.9132 11.6828C23.9807 12.302 23.9807 12.9267 23.9132 13.5458C23.7899 14.5001 23.5449 15.4347 23.1842 16.3268C22.7954 17.2562 22.3444 18.1582 21.8342 19.0268C21.1727 20.2283 20.4842 21.4568 19.6877 22.6448C18.9413 23.8243 18.1159 24.9518 17.2172 26.0198C17.1791 26.0712 17.1515 26.1297 17.1359 26.1917C17.1204 26.2538 17.1172 26.3184 17.1266 26.3817C17.136 26.445 17.1578 26.5058 17.1907 26.5607C17.2236 26.6156 17.267 26.6635 17.3185 26.7016C17.3699 26.7397 17.4283 26.7673 17.4904 26.7829C17.5525 26.7984 17.617 26.8016 17.6803 26.7922C17.7436 26.7827 17.8044 26.761 17.8593 26.7281C17.9142 26.6951 17.9621 26.6517 18.0002 26.6003C18.9737 25.5266 19.8756 24.3902 20.7002 23.1983C21.5102 22.0103 22.2797 20.7818 22.9817 19.5803C23.6351 18.4984 24.1995 17.3652 24.6692 16.1918C24.9808 15.3815 25.2026 14.5395 25.3307 13.6808C25.4346 12.9566 25.4573 12.2231 25.3982 11.4938C25.3278 10.771 25.1877 10.0567 24.9797 9.36083C24.3802 7.56 23.2 6.00905 21.6241 4.95117C20.0483 3.89328 18.1659 3.38827 16.2722 3.51533C14.3834 3.46991 12.5302 4.03343 10.9864 5.12258C9.44265 6.21173 8.29029 7.7687 7.6997 9.56333C7.51425 10.2445 7.4368 10.9506 7.4702 11.6558C7.49771 12.3288 7.5881 12.9977 7.7402 13.6538C8.01925 14.7554 8.42706 15.8202 8.9552 16.8263Z" fill="white"/>
<path fill-rule="evenodd" clip-rule="evenodd" d="M19.2285 10.3054C18.0135 8.41539 17.19 8.19939 15.0165 8.95539C14.3788 9.13895 13.8012 9.48833 13.3425 9.96789C13.0007 10.3737 12.7561 10.8522 12.6274 11.3669C12.4988 11.8817 12.4894 12.419 12.6 12.9379C12.705 13.4827 12.9353 13.9956 13.2727 14.4361C13.6101 14.8766 14.0453 15.2326 14.544 15.4759C15.1171 15.7106 15.7364 15.8107 16.3542 15.7686C16.9721 15.7264 17.572 15.5432 18.108 15.2329C18.6643 14.9316 19.1212 14.4753 19.4232 13.9193C19.7252 13.3633 19.8592 12.7316 19.809 12.1009C19.7664 11.4637 19.567 10.8469 19.2285 10.3054ZM17.352 13.8559C17.0285 14.0361 16.6679 14.1396 16.2981 14.1583C15.9282 14.177 15.559 14.1105 15.219 13.9639C14.9521 13.8303 14.7174 13.6404 14.5309 13.4073C14.3445 13.1743 14.2108 12.9036 14.139 12.6139C14.0328 12.31 13.9959 11.9862 14.0309 11.6662C14.0659 11.3462 14.172 11.0381 14.3415 10.7644C14.6915 10.3294 15.1606 10.0057 15.6915 9.83289C16.0809 9.70196 16.484 9.6159 16.893 9.57639C17.3136 9.88465 17.6866 10.2531 18 10.6699C18.309 11.1222 18.4651 11.6615 18.4455 12.2089C18.4315 12.5572 18.3221 12.895 18.1293 13.1855C17.9365 13.4759 17.6676 13.7078 17.352 13.8559Z" fill="#F2637E"/>
<path fill-rule="evenodd" clip-rule="evenodd" d="M33.9436 30.1509C33.7416 29.754 33.5068 29.3746 33.2416 29.0169C32.8535 28.5093 32.4389 28.0227 31.9996 27.5589L29.7586 25.0614C29.5021 24.7644 29.2321 24.3054 28.9081 23.9544C28.7353 23.762 28.5296 23.602 28.3006 23.4819C27.9757 23.3232 27.6222 23.2313 27.2611 23.2119C26.8117 23.1781 26.3605 23.1781 25.9111 23.2119L23.7646 23.3739C23.7007 23.3736 23.6376 23.3867 23.579 23.4122C23.5205 23.4378 23.468 23.4753 23.4248 23.5223C23.3816 23.5693 23.3487 23.6248 23.3282 23.6852C23.3076 23.7457 23.2999 23.8098 23.3056 23.8734C23.3055 23.9377 23.3185 24.0015 23.3439 24.0606C23.3694 24.1198 23.4066 24.1731 23.4534 24.2174C23.5002 24.2616 23.5555 24.2959 23.616 24.3179C23.6764 24.34 23.7408 24.3495 23.8051 24.3459L25.9516 24.2379C26.3606 24.2108 26.771 24.2108 27.1801 24.2379C27.3958 24.2592 27.6061 24.3187 27.8011 24.4134C27.9621 24.5139 28.1001 24.6473 28.2061 24.8049C28.4491 25.1154 28.6651 25.4934 28.8676 25.7499L31.0816 28.3689C31.4758 28.7976 31.8454 29.2483 32.1886 29.7189C32.4032 30.0225 32.5928 30.343 32.7556 30.6774H32.4856H31.1356L24.7501 30.7854C22.2121 30.9069 19.6876 30.9744 17.1496 31.0959C15.4486 31.1769 13.7611 31.2849 12.0601 31.4334C10.3591 31.5819 8.88758 31.8249 7.29458 31.9599C6.63308 31.9599 5.94458 32.0544 5.29658 32.0679L4.10858 32.0004C4.00058 32.0004 3.67658 31.7574 3.39308 31.6629L3.47408 31.4334L5.06708 28.4634L6.09308 26.6004L6.74108 25.4934C7.00195 25.0244 7.40995 24.6543 7.90208 24.4404C8.78785 24.2432 9.70003 24.193 10.6021 24.2919C10.7076 24.289 10.8085 24.2476 10.8856 24.1755C10.9627 24.1034 11.0107 24.0055 11.0206 23.9004C11.0206 23.7858 10.9751 23.6759 10.8941 23.5949C10.813 23.5139 10.7032 23.4684 10.5886 23.4684C9.58589 23.3403 8.56902 23.3768 7.57808 23.5764C6.89024 23.836 6.3036 24.3091 5.90408 24.9264L5.17508 26.0604L4.08158 27.9504L2.35358 30.8124C2.35358 30.9204 2.04308 31.2714 1.92158 31.5144C1.83375 31.6852 1.79187 31.8759 1.80008 32.0679C1.82646 32.2163 1.88324 32.3577 1.96688 32.4832C2.05052 32.6086 2.15919 32.7154 2.28608 32.7969C2.7798 33.0642 3.313 33.251 3.86558 33.3504L5.28308 33.4854H7.40258C8.99558 33.3909 10.5886 33.1884 12.1951 33.0804L24.8311 32.4324C26.5186 32.3244 28.2196 32.4324 29.9071 32.4324C30.3391 32.4324 30.7846 32.4324 31.2571 32.3649C31.7296 32.2974 32.3371 32.3649 32.8771 32.2569C33.1469 32.201 33.4095 32.115 33.6601 32.0004C33.7969 31.9479 33.9175 31.8604 34.0099 31.7467C34.1023 31.633 34.1632 31.497 34.1866 31.3524C34.2039 30.9381 34.1205 30.5258 33.9436 30.1509Z" fill="white"/>
</svg>
