<svg width="64" height="64" viewBox="0 0 64 64" fill="none" xmlns="http://www.w3.org/2000/svg">
<path fill-rule="evenodd" clip-rule="evenodd" d="M58.9868 26.5756C57.9138 21.5188 55.3173 16.9121 51.5468 13.3756C48.5468 10.5196 34.2668 -1.02438 19.0988 5.88762C15.0506 7.65895 11.4643 10.338 8.61748 13.7175C5.77064 17.0969 3.73959 21.0861 2.68155 25.3763C1.6235 29.6665 1.56683 34.1426 2.51592 38.4582C3.46501 42.7738 5.39441 46.8132 8.15478 50.2636C9.96543 52.597 12.1176 54.6441 14.5388 56.3356C17.0136 58.0507 19.8162 59.2355 22.7708 59.8156C31.8668 61.5916 41.7308 58.0156 48.9308 51.7036C56.1308 45.3916 61.0028 35.6956 58.9868 26.5756ZM47.2988 49.8076C40.6268 55.5196 31.6028 58.8796 23.2988 57.2236C20.7187 56.7006 18.2701 55.6641 16.0988 54.1756C13.894 52.6238 11.9221 50.765 10.2428 48.6556C7.63759 45.5191 5.7943 41.8219 4.85741 37.8536C3.92053 33.8854 3.91552 29.7541 4.84278 25.7836C5.77552 21.7817 7.60939 18.0455 10.2047 14.8596C12.7999 11.6738 16.0882 9.12231 19.8188 7.39962C21.4748 6.60762 32.9228 1.30363 47.4668 12.4156C52.3049 15.9393 55.6517 21.1437 56.8508 27.0076C58.6268 35.3836 54.2108 43.9996 47.2988 49.8076Z" fill="#F2637E"/>
<path fill-rule="evenodd" clip-rule="evenodd" d="M43.8667 18.8477C42.1245 18.8933 40.3966 19.1759 38.7307 19.6877L36.8587 19.9997C32.8507 20.7437 28.7947 21.5117 24.8587 22.3997C22.1947 23.0717 19.5547 23.8157 16.9627 24.7997C16.4297 24.964 15.9085 25.1645 15.4027 25.3997C14.87 25.6308 14.3564 25.9037 13.8667 26.2157L12.4027 27.1757L11.4667 27.9917C11.1006 28.3067 10.8465 28.7319 10.7426 29.2036C10.6388 29.6753 10.6907 30.168 10.8907 30.6077C11.4667 31.9997 13.8667 32.8157 15.0427 33.1517L16.3147 33.5597H16.6747V35.5037V37.9037L16.8667 39.6797L17.0107 40.9517C17.1129 41.9791 17.2893 42.9977 17.5387 43.9997C17.6959 44.656 18.0472 45.2498 18.5467 45.7037H18.6667C18.7122 45.8777 18.8211 46.0284 18.9722 46.1261C19.1232 46.2238 19.3053 46.2615 19.4827 46.2317C20.8159 46.2108 22.1465 46.1066 23.4667 45.9197C24.0271 45.8205 24.5803 45.6842 25.1227 45.5117C25.6747 45.3437 26.2027 45.1517 26.7307 44.9357C27.9067 44.4797 28.9867 43.9517 30.0907 43.4237L31.4827 44.7677L33.0667 45.8957L34.3147 46.4477C34.7214 46.5748 35.1532 46.5997 35.5718 46.5201C35.9904 46.4406 36.383 46.2591 36.7147 45.9917C37.6806 44.9397 38.4308 43.7084 38.9227 42.3677L42.2827 35.3597C43.1947 33.5357 44.1547 31.7357 45.0427 29.8877C45.6427 28.6397 46.1947 27.4877 46.6747 26.0717C47.1241 25.0624 47.3922 23.9819 47.4667 22.8797C47.514 21.9569 47.2522 21.0448 46.7227 20.2877C46.3885 19.8451 45.9573 19.4852 45.4622 19.2355C44.967 18.9859 44.4212 18.8532 43.8667 18.8477ZM18.3787 35.4557L18.2107 34.0637C19.3147 34.0637 19.3867 33.0317 30.8347 29.6477L32.3227 29.2637C31.2917 30.2322 30.2102 31.1454 29.0827 31.9997C27.3067 33.3677 25.4587 34.6877 23.6587 36.0557L22.5547 37.3037L20.8987 40.8797C20.8987 40.8797 20.3707 41.9357 19.9387 42.8477C19.7707 41.9837 19.6987 41.0717 19.6027 40.6637L19.3147 39.3677L18.8587 37.6877L18.3787 35.4557ZM25.9147 42.6557C25.3627 42.7757 24.8107 42.8957 24.2827 43.0637L22.6987 43.5677L22.0507 43.8557C22.2187 43.2557 22.6747 42.0317 22.7947 41.6237C23.0827 40.7597 23.6347 38.7917 23.9467 38.0237C23.983 37.9362 24.0017 37.8424 24.0017 37.7477C24.0017 37.6529 23.983 37.5591 23.9467 37.4717C23.9467 37.4717 24.1147 37.4717 24.2107 37.4717L28.5547 42.2717C27.7147 42.2237 26.8267 42.3677 25.8667 42.5837L25.9147 42.6557ZM44.7067 23.2637C44.6189 23.9402 44.4413 24.602 44.1787 25.2317C43.8427 26.1677 43.4587 27.0797 43.0747 27.9677C42.1147 30.1277 41.0827 32.2637 40.0987 34.3997L36.9547 41.4797C36.614 42.4439 36.1715 43.3691 35.6347 44.2397C35.5484 44.3854 35.4188 44.5007 35.264 44.5695C35.1092 44.6384 34.9368 44.6573 34.7707 44.6237L33.9307 44.2877L32.5627 43.3757L30.1627 41.1917L25.6987 36.5597C27.5707 35.3837 29.4427 34.1597 31.2667 33.0077C32.2267 32.3597 33.1867 31.6877 34.0747 30.9677C34.5547 30.5597 35.0587 30.1517 35.4907 29.7197C35.8365 29.3556 36.1275 28.9433 36.3547 28.4957C36.5178 28.062 36.6305 27.611 36.6907 27.1517C36.6974 26.8159 36.5736 26.4907 36.3453 26.2445C36.117 25.9982 35.802 25.8502 35.4667 25.8317C35.2753 25.8099 35.0821 25.8099 34.8907 25.8317C34.5086 25.9018 34.1317 25.998 33.7627 26.1197L30.1387 27.1997C28.7467 27.6557 27.4027 28.1117 26.0827 28.6397C23.0347 29.8397 20.1067 31.2077 17.0107 32.3597H16.7947L15.5227 31.9277C14.4499 31.6143 13.4532 31.0832 12.5947 30.3677C12.3307 30.1037 12.3307 29.7437 12.7387 29.3357L13.4587 28.7357L14.7067 27.9677L17.4907 26.7197C20.0827 25.9517 22.6987 25.3277 25.3147 24.7997C29.2987 23.9597 33.3067 23.3117 37.3147 22.6637L39.2587 22.2797C40.5156 21.9195 41.7999 21.6626 43.0987 21.5117C43.6507 21.5117 44.2027 21.5117 44.4667 21.8477C44.7177 22.2477 44.8037 22.7295 44.7067 23.1917V23.2637Z" fill="white"/>
</svg>
