<svg width="64" height="64" viewBox="0 0 64 64" fill="none" xmlns="http://www.w3.org/2000/svg">
<path fill-rule="evenodd" clip-rule="evenodd" d="M57.5633 12.0461C54.8513 8.6885 48.6065 9.1181 44.5865 8.9237C35.8721 8.4917 28.7777 8.4797 20.1545 8.7317C2.81447 9.2477 0.80567 8.2661 2.24327 45.4397C2.42087 49.8221 3.92807 53.4317 8.20487 54.0461C20.5361 55.8701 33.0665 55.8941 45.4049 54.1253C56.1977 52.2821 58.2137 52.7909 59.0513 42.7421C59.4737 37.9781 60.1793 13.7261 57.5633 12.0461ZM56.1737 13.2197C58.8425 16.5005 56.9105 42.6557 55.8857 47.1317C55.3265 49.6805 53.2289 50.0309 50.6057 50.4869C45.008 51.4276 39.3555 52.0064 33.6833 52.2197C29.8433 52.3805 8.09927 52.5557 6.35447 49.0973C4.9572 38.1812 4.91448 27.1343 6.22727 16.2077C6.71216 14.964 7.55437 13.8917 8.64775 13.1259C9.74113 12.3601 11.0367 11.9351 12.3713 11.9045C25.6172 11.041 38.8987 10.8592 52.1633 11.3597C53.6886 11.4392 55.1252 12.1016 56.1761 13.2101V13.2173L56.1737 13.2197Z" fill="white"/>
<path fill-rule="evenodd" clip-rule="evenodd" d="M37.8331 24.7206C33.5659 22.5078 24.5011 14.8494 20.5123 23.607C19.267 28.5722 19.1473 33.7529 20.1619 38.7702C20.3085 39.5723 20.6133 40.3371 21.0585 41.0202C21.5037 41.7033 22.0804 42.2909 22.7551 42.7488C23.4297 43.2068 24.1887 43.5258 24.9878 43.6875C25.787 43.8491 26.6104 43.85 27.4099 43.6902C30.3761 42.9256 33.2012 41.6925 35.7787 40.0374C45.1723 34.4862 47.6539 29.8206 37.8331 24.7206ZM36.9595 26.3358C45.7243 31.4982 41.1883 34.2222 31.9075 38.703C23.2531 42.771 22.9459 39.9318 22.8355 30.171C22.4467 17.607 29.2195 22.9374 36.9715 26.343L36.9595 26.3358Z" fill="#F2637E"/>
</svg>
