<svg width="130" height="130" viewBox="0 0 130 130" fill="none" xmlns="http://www.w3.org/2000/svg">
<path fill-rule="evenodd" clip-rule="evenodd" d="M121.58 43.3389C120.644 35.6764 117.896 28.3478 113.563 21.9596C111.501 19.5664 109.198 17.3917 106.691 15.4695C102.492 12.4153 39.6898 12.6537 24.4666 15.0395C23.2518 15.331 22.8082 16.8277 23.6676 17.7339C23.9977 18.082 24.4652 18.2663 24.9439 18.237C28.5709 17.7598 33.9154 17.4258 40.0715 17.2347C37.5823 24.3932 35.9799 31.8295 35.2994 39.378L28.0936 41.0481C22.6054 41.5254 17.4993 40.1892 11.8204 41.3821C13.8723 34.2212 16.5219 27.2451 19.7423 20.5278C19.9066 19.8219 19.5171 19.1043 18.8355 18.8576C17.6426 18.4281 16.7836 19.2871 15.113 23.2003C11.2476 32.124 6.61878 41.0481 7.52553 50.2585C8.86176 64.1932 25.8029 67.2474 34.1542 55.6507L35.2994 53.9328C35.5524 61.0776 41.6725 66.5922 48.8046 66.1017C55.6159 65.838 61.735 61.8629 64.7439 55.7463C70.2795 68.6314 87.5545 72.6396 92.9472 55.7463C100.333 65.6362 115.655 63.8222 120.527 52.481C121.764 49.6018 122.13 46.4238 121.58 43.3389ZM86.4571 17.7598C86.5473 25.0752 87.1211 32.377 88.1751 39.6163C84.3097 39.6163 70.4228 39.2824 67.3686 39.1391C67.917 31.8163 67.917 24.4624 67.3686 17.1397C74.1448 17.1874 80.7305 17.4736 86.4571 17.7598ZM43.5074 17.1874H64.3144C63.0532 24.3742 62.3829 31.6521 62.3098 38.9485C49.9975 38.1373 46.2277 37.2305 40.6921 38.3279C41.5033 34.033 43.5074 17.1874 43.5074 17.1874ZM33.9631 48.0155C31.0045 52.5015 29.191 56.4619 24.4189 58.2276C18.2539 60.9649 11.272 56.6169 11.0092 49.8768C10.7718 48.0228 10.7718 46.1469 11.0092 44.2929C11.1355 44.3163 11.2647 44.3163 11.3909 44.2929C16.497 43.3867 22.7965 45.1997 28.3798 44.8657L34.8699 44.0545C34.9425 45.3971 34.6973 46.7377 34.1542 47.9677L33.9631 48.0155ZM59.5423 54.41C55.4858 61.5207 45.2254 63.6204 41.5511 57.7509C39.4734 53.2839 38.7913 48.2943 39.5943 43.434C48.1845 42.3366 49.6636 43.7206 62.4054 44.1501C62.6437 48.2061 63.1688 46.2498 59.5423 54.41ZM81.5895 61.3774C76.6647 61.5348 72.1134 58.7629 69.9933 54.3145C68.8954 52.3581 68.466 49.2562 66.5096 47.3949C66.0801 47.1565 66.0801 47.7293 66.5096 44.3885C73.8109 44.3885 79.2987 44.3885 88.843 43.8634C89.9408 49.5901 86.8866 60.5662 81.5417 61.3774H81.5895ZM115.329 50.5924C112.17 56.9099 103.893 58.5372 98.5783 53.885C95.5339 51.2934 93.6312 47.6079 93.2812 43.6251L104.543 43.1478C105.792 43.1478 106.573 41.7955 105.949 40.7142C105.659 40.2121 105.123 39.9025 104.543 39.9025H93.1856C92.7591 32.5632 91.6568 25.279 89.893 18.1415C94.6652 18.4281 98.3395 18.7143 101.012 19.0482C102.396 19.0482 103.732 20.0983 104.018 19.6688C108.521 22.8073 111.872 27.3323 113.563 32.5534C115.567 38.4234 117.81 44.7702 115.329 50.5924Z" fill="white"/>
<path fill-rule="evenodd" clip-rule="evenodd" d="M21.6029 76.6004C20.4865 75.893 19.0123 76.5789 18.8354 77.8888C18.8354 78.2706 17.4991 91.0601 17.6898 94.5438C17.6898 96.5484 17.6898 98.6003 19.4555 99.6499C27.4729 103.993 37.1127 101.177 45.0346 102.084C48.7089 102.418 53.9583 103.468 56.1535 100.223C57.6808 97.9797 56.4402 94.1621 56.3924 92.2057C56.3924 84.5222 57.6808 72.4966 51.6202 71.7805C51.6202 71.7805 37.3033 72.0671 32.9134 71.4465C29.4258 71.4012 25.9426 71.6888 22.5097 72.3055C21.8442 72.5483 21.444 73.2283 21.5556 73.9279C21.9373 77.0299 27.2823 73.9279 32.3406 75.1213C33.6291 75.1213 34.9175 75.503 36.206 75.6463C35.872 77.8888 35.4426 81.7069 35.347 84.4745C30.6597 84.4423 25.9787 84.8416 21.3645 85.6679V84.1405C21.7462 76.1236 21.8891 77.0299 21.6029 76.6004ZM51.8586 97.3596C51.6202 98.0275 46.4659 96.739 45.5592 96.6434H39.7852C40.1503 94.3693 40.3736 92.0741 40.4531 89.7716C50.3318 89.1038 50.284 89.4855 50.9997 89.3422C50.712 92.0454 51.0045 94.7788 51.8586 97.3596ZM50.8563 76.6004C51.3175 79.6799 51.4457 82.7999 51.238 85.9063C47.6993 85.1048 44.0815 84.7046 40.4531 84.7133C40.1679 81.7454 39.7057 78.7975 39.0691 75.8847C49.6156 76.6004 49.9974 77.4594 50.8563 76.6004ZM35.6809 89.915C35.6809 91.0123 35.9676 92.158 36.0627 93.2553C36.6355 96.8823 36.6355 96.5957 36.5399 97.0256C31.4738 97.9036 26.2712 97.56 21.3645 96.0234V88.5787C21.794 88.7698 33.1518 89.8194 35.6809 89.915Z" fill="#F2637E"/>
<path fill-rule="evenodd" clip-rule="evenodd" d="M77.1988 95.26C73.0473 93.3032 72.4267 105.282 76.0059 105.282C76.9019 105.282 77.6283 104.555 77.6283 103.659C79.3463 98.3142 77.5805 95.4506 77.1988 95.26Z" fill="#F2637E"/>
<path fill-rule="evenodd" clip-rule="evenodd" d="M69.4203 107.142C69.8498 102.37 70.327 96.4052 71.1382 91.6331C72.004 85.554 77.2632 81.0724 83.4028 81.1821C94.3788 80.8481 94.7128 93.1599 96.0968 103.086C96.7169 108.097 101.298 109.243 100.869 103.086C100.439 96.9303 99.3893 93.1126 99.151 92.2059C98.2652 87.4781 96.1221 83.077 92.947 79.4641C86.7251 74.3571 77.6956 74.6013 71.7583 80.0364C66.2705 84.8091 65.65 90.3924 64.9343 97.2642C64.5526 100.843 65.2682 101.177 64.9343 103.898C64.3137 108.908 68.1796 111.199 69.4203 107.142Z" fill="white"/>
<path fill-rule="evenodd" clip-rule="evenodd" d="M119.624 85.5245C119.242 76.7914 117.858 71.5898 117.762 62.7611C117.762 61.5122 116.41 60.7317 115.329 61.3562C114.827 61.6457 114.517 62.1815 114.517 62.7611C114.517 71.7326 117.906 97.1684 114.804 107.142C114.804 107.811 113.276 109.767 113.849 110.292C113.372 110.292 44.0801 111.628 34.7265 111.676C29.9543 111.676 16.0674 111.676 11.9158 111.103C10.6274 89.9149 10.4363 103.372 10.6274 60.8999C10.6274 59.7981 9.43398 59.1093 8.47994 59.6602C8.03681 59.9161 7.76381 60.3885 7.76381 60.8999C7.76381 69.7763 6.42757 95.7844 7.76381 103.85C7.76381 105.663 7.47764 112.344 8.81388 114.205C12.727 119.598 112.656 114.873 113.372 114.826C118.717 114.348 118.144 111.294 119.051 108.478C119.91 104.565 120.244 100.223 119.624 85.5245Z" fill="white"/>
</svg>
