<svg width="130" height="130" viewBox="0 0 130 130" fill="none" xmlns="http://www.w3.org/2000/svg">
<path d="M35.0593 68.0652C33.7583 66.4884 31.798 65.6061 29.7548 65.6781C28.2354 65.5806 26.7117 65.5806 25.1923 65.6781C24.0554 65.7772 22.9336 66.0085 21.8503 66.3676C20.7669 66.7268 20.6304 66.3676 20.4712 66.7923C20.2442 66.7436 20.0091 66.7436 19.7816 66.7923C19.2676 66.9689 18.8982 67.4206 18.8267 67.9596C18.6988 68.5581 18.9258 69.1767 19.41 69.551C19.8943 69.9253 19.8878 69.869 20.5243 69.9221C21.3015 69.9746 22.0815 69.9746 22.8583 69.9221C23.6334 69.8224 24.4178 69.8224 25.1923 69.9221C26.501 70.0683 27.7956 70.3164 29.0653 70.6647C29.8079 70.6647 30.0202 71.4073 30.2851 71.8851C30.7948 73.0502 31.2032 74.257 31.5055 75.492C31.8077 76.727 31.5055 75.0679 31.5055 75.121C31.5055 75.1741 30.3913 75.9698 29.5955 76.2877C28.4088 76.7227 27.183 77.0423 25.935 77.2427L21.0545 78.3569H20.6304C20.2686 78.3493 19.9143 78.4609 19.6224 78.6749C17.4476 79.736 18.8798 82.1231 20.7897 82.0169H21.2669H26.572C29.8128 82.2526 33.0535 81.5527 35.9081 80.0014C37.7693 78.5226 38.4198 75.9866 37.5001 73.7944C37.0055 71.7643 36.1806 69.8289 35.0593 68.0652ZM22.0095 69.551C22.3128 69.2006 22.4483 68.7358 22.3811 68.2776C22.5057 68.738 22.3621 69.2293 22.0095 69.551Z" fill="#F2637E"/>
<path d="M94.8984 68.1714C93.8275 69.9838 93.1076 71.9814 92.7761 74.0598C92.0904 76.4258 93.1228 78.9522 95.2694 80.1606C98.2215 81.4465 101.477 81.8696 104.659 81.3805L109.964 80.744H110.442C112.351 80.744 113.624 78.1445 111.343 77.2957C111.015 77.1972 110.664 77.1972 110.335 77.2957H109.911L104.606 77.0309C103.351 76.9404 102.107 76.7275 100.893 76.3939C100.097 76.3939 98.3997 75.7574 98.93 75.3864C99.4603 75.0153 98.93 75.3864 98.93 75.7574C99.1494 74.5186 99.4506 73.2961 99.8319 72.0968C99.8319 71.5134 100.256 70.9301 100.946 70.7177C102.211 70.2785 103.505 69.9242 104.818 69.6566C105.559 69.4383 106.328 69.3311 107.099 69.3387C107.877 69.3917 108.656 69.3917 109.433 69.3387C109.842 69.2883 110.229 69.1225 110.548 68.8609C111.131 68.1714 111.45 67.4818 110.548 66.633C110.359 66.385 110.1 66.2002 109.805 66.1027H109.062C108.616 65.9532 108.152 65.8644 107.683 65.8373C106.593 65.5524 105.467 65.4273 104.341 65.4663C102.804 65.3758 101.263 65.3758 99.7257 65.4663C97.8055 65.6412 96.0505 66.6249 94.8984 68.1714Z" fill="#F2637E"/>
<path d="M93.7311 57.9865C94.4727 57.8402 95.0447 57.2471 95.1638 56.5007C95.3128 55.9065 95.1303 55.2782 94.6861 54.8562C94.2419 54.4126 93.599 54.2317 92.9885 54.379H92.6175H86.729L73.0953 53.6895H56.7033C48.5339 54.2197 40.7892 55.334 32.4605 55.5457C31.5695 55.4845 30.8138 56.1914 30.816 57.0846C30.7813 57.9069 31.3793 58.6197 32.1951 58.7291C38.9854 59.3656 45.8283 59.7366 52.6717 59.7897H62.8572C66.1993 59.7897 69.5414 59.4187 72.9366 59.3656L86.5698 58.676L92.6706 58.2514L93.7311 57.9865Z" fill="white"/>
<path d="M20.6836 44.9358V45.2012V45.5197C21.0021 45.0951 20.8959 44.8302 20.6836 44.9358Z" fill="white"/>
<path d="M109.434 42.3901C109.434 42.3901 109.062 42.3901 108.956 42.9204L109.222 42.6019C109.222 42.6019 109.54 42.4432 109.434 42.3901Z" fill="white"/>
<path d="M128.266 37.0319C128.001 35.8647 128.266 34.0084 127.735 33.0003C127.602 32.6434 127.423 32.3043 127.205 31.9923C127.176 30.9875 126.353 30.1885 125.348 30.1885C125.017 30.11 124.672 30.11 124.34 30.1885C124.022 28.8625 119.035 30.1885 119.035 30.1885C117.04 29.8679 114.997 30.3034 113.306 31.4089C112.033 32.4169 111.609 34.3263 110.866 37.2974C109.755 37.1912 108.636 37.1912 107.524 37.2974C106.468 37.3862 105.476 37.8358 104.712 38.5703C103.859 39.6579 103.326 40.9628 103.174 42.337C102.749 40.2679 102.219 38.1462 101.636 36.077C100.684 32.2458 99.0876 28.6042 96.9139 25.3081C94.9363 23.6777 92.553 22.6139 90.018 22.2314C81.8789 20.7955 73.6082 20.2441 65.3505 20.5869C51.4518 20.9054 37.6058 22.9741 34.4229 25.892C32.4935 28.3934 31.0538 31.2372 30.179 34.2732C29.0122 37.6153 27.898 41.2228 26.89 44.6711C26.689 43.4252 26.1988 42.2444 25.4578 41.2228C24.6951 40.5187 23.7299 40.0734 22.6991 39.9494C21.5692 39.8697 20.4344 39.8697 19.3045 39.9494C18.5613 37.0319 18.1372 35.122 16.8643 34.1145C15.1515 32.9158 13.0363 32.4397 10.9758 32.788C10.6042 32.788 5.67072 31.4089 5.67072 32.788C5.37876 32.574 5.02451 32.4619 4.66267 32.47C3.65788 32.4695 2.83509 33.269 2.80638 34.2732C2.77767 35.2775 2.80638 34.2732 2.80638 34.5917C2.58755 34.8848 2.4088 35.206 2.27555 35.5467C1.95759 36.6073 2.27555 38.411 1.74526 39.5783C1.04217 41.6686 1.17542 43.9496 2.1163 45.944C3.28359 48.0132 6.14793 48.7558 10.8696 49.1268C12.9193 49.1897 14.969 48.9936 16.9699 48.5434C18.1675 48.2759 19.214 47.5533 19.8878 46.5274C20.1885 45.9559 20.3347 45.3162 20.312 44.6711C21.2138 44.9359 21.7972 45.3075 21.5323 45.8378C21.2675 46.3681 21.2669 45.8378 21.1077 45.8378C21.183 46.4093 21.2891 46.9759 21.4262 47.5354C21.8173 48.5559 22.2782 49.5488 22.8053 50.5064C23.185 51.2567 23.6102 51.983 24.0787 52.6812L24.5028 52.9997C21.5854 54.3257 19.1983 54.5912 16.9699 55.7579C15.5653 56.6251 14.4842 57.93 13.8932 59.4716C12.1469 66.6914 11.3972 74.1161 11.6653 81.5396C11.6962 84.0665 12.1263 86.5733 12.9383 88.9664C13.3423 90.0904 14.1575 91.0188 15.2192 91.5659C18.3766 92.088 21.5686 92.3719 24.7683 92.4146C24.4498 94.1653 23.8133 96.1278 23.6541 98.0377C23.4433 99.2667 23.4433 100.522 23.6541 101.751C24.6578 104.989 27.3027 107.452 30.6036 108.223C33.052 108.946 35.6433 109.037 38.1366 108.488C39.8569 108.095 41.4576 107.294 42.8047 106.154C43.8176 105.254 44.538 104.072 44.8733 102.759C45.2156 100.615 45.2156 98.4309 44.8733 96.287V93.3165C51.3988 93.3165 58.4009 93.5814 65.4036 93.6345C72.4062 93.6876 79.1429 93.6345 85.4555 93.6345V96.2339C85.1365 98.5929 85.1365 100.984 85.4555 103.342C85.7486 104.832 86.5107 106.19 87.6308 107.215C90.7183 109.373 94.6032 110.053 98.2405 109.071C102.094 108.328 105.253 105.574 106.516 101.857C106.842 100.666 106.932 99.4227 106.781 98.1969C106.55 96.5714 106.231 94.9599 105.827 93.3696H110.017C112.017 93.3534 114.008 93.1221 115.958 92.6795C117.332 92.0209 118.356 90.8037 118.77 89.3374C119.562 86.5094 119.884 83.5703 119.725 80.6377C119.735 72.7067 118.719 64.8075 116.701 57.1375C116.048 55.7129 114.95 54.5397 113.571 53.7954C110.825 52.4527 107.944 51.4034 104.978 50.6652C105.366 50.4512 105.708 50.1625 105.985 49.8164C106.467 49.1079 106.892 48.3631 107.259 47.5885C107.788 46.6503 108.249 45.6753 108.638 44.6711C108.774 44.0931 108.88 43.5087 108.956 42.9204C109.032 42.3322 108.638 43.2914 108.532 42.9204C108.425 42.5494 108.903 42.0716 109.752 41.8062C109.734 42.4513 109.88 43.0899 110.176 43.663C110.813 44.7214 111.843 45.4841 113.041 45.7847C115.04 46.2489 117.089 46.4629 119.141 46.4212C123.916 46.0502 126.727 45.2544 127.895 43.2384C128.82 41.2965 128.954 39.0702 128.266 37.0319ZM10.9758 43.1327C9.72238 43.2324 8.46247 43.2324 7.20905 43.1327H6.30717C5.76605 42.2623 5.54126 41.2315 5.67072 40.2148C5.67072 39.3129 6.25409 37.4035 5.67072 36.7134C7.58063 37.085 10.498 37.3504 10.9758 37.4035C11.7374 37.4149 12.4914 37.5584 13.2037 37.8277C13.916 38.0969 13.2037 37.8277 13.2037 38.0931V38.8357C13.2037 39.1011 13.2037 41.0636 13.6283 42.5488V43.2389C12.9913 43.2914 11.3999 43.1327 10.9758 43.1327ZM14.2648 44.4587C13.9463 44.4587 14.2648 44.0346 14.2648 43.7161C14.2648 43.3976 14.5297 44.4587 14.2117 44.4587H14.2648ZM14.6889 43.1858C14.7881 42.9762 14.9126 42.7801 15.0605 42.6019C15.0502 42.7254 15.0502 42.85 15.0605 42.9735C14.9343 43.071 14.7897 43.143 14.6358 43.1853L14.6889 43.1858ZM24.7683 52.8936V53.2646C24.7683 53.2646 24.4498 53.0528 24.7152 52.8936H24.7683ZM41.1071 96.287C41.0128 97.535 40.8352 98.776 40.5768 100.001C40.4939 100.655 40.1494 101.249 39.6218 101.645C37.7515 102.634 35.6043 102.97 33.5211 102.6C31.5586 102.335 29.4894 102.016 28.7999 100.319C28.4538 99.4417 28.2913 98.5024 28.3227 97.5605V92.7857L41.0009 93.2104C40.9251 94.2352 40.943 95.2654 41.054 96.287H41.1071ZM102.484 97.5605C102.538 98.5214 102.375 99.4823 102.007 100.372C101.317 102.069 99.2485 102.706 97.1793 103.13C95.2683 103.774 93.1764 103.602 91.3971 102.653C90.7996 102.096 90.4231 101.343 90.3359 100.531C90.0326 99.1319 89.8197 97.7138 89.6995 96.287V93.6876H102.325C102.272 94.8549 102.431 96.1809 102.431 97.5605H102.484ZM111.131 59.5247C112.227 63.3699 112.938 67.3149 113.253 71.301C113.782 75.5764 113.959 79.8881 113.784 84.1921C113.784 85.2002 113.412 86.42 113.306 87.0034C112.033 87.0034 109.116 87.0034 105.136 87.375C95.641 87.6935 80.6282 87.9584 65.6153 88.1176C42.8578 88.1176 20.1002 88.383 17.2353 87.6935C16.8307 86.9352 16.5105 86.1346 16.2803 85.3058C15.7836 81.9172 15.606 78.4895 15.7501 75.0678C15.6975 70.1971 16.2137 65.3367 17.2884 60.5852C17.5906 59.8047 18.128 59.1374 18.8267 58.6759C20.8428 57.4024 23.7071 57.2432 26.7307 55.5987C27.4181 54.7439 27.9072 53.7478 28.1634 52.6812C29.1715 49.233 31.3463 41.6469 33.468 35.7585C34.1646 33.3188 35.3167 31.033 36.8631 29.0218C39.7811 26.4754 52.7778 25.4674 65.1912 25.5204C73.0595 25.4067 80.9185 26.1179 88.6384 27.6422C90.1079 27.8724 91.5048 28.4346 92.7231 29.2867C94.1942 31.9582 95.2499 34.8382 95.8533 37.8277C97.2183 42.5569 98.1246 47.4065 98.5584 52.3097C98.3992 53.5809 99.0876 54.8078 100.256 55.3338C102.219 56.2357 105.561 57.0314 108.32 58.0919C109.593 58.5697 110.76 58.782 111.078 59.5247H111.131ZM114.898 40.4271V40.0555C115.046 40.2142 115.171 40.3924 115.269 40.5864C115.119 40.5593 114.975 40.5051 114.845 40.4271H114.898ZM115.905 41.8593C115.587 41.8593 115.64 41.5413 115.905 41.1697C116.17 40.7982 116.171 41.9124 115.852 41.8593H115.905ZM123.916 40.5864H122.961C121.708 40.6855 120.448 40.6855 119.194 40.5864H116.011C116.118 40.3816 116.206 40.1687 116.277 39.9499C116.542 38.411 116.595 37.1912 116.702 36.1832C116.808 35.1751 116.702 35.7059 116.702 35.4936C117.41 35.2017 118.164 35.0402 118.929 35.0164C119.3 35.0164 122.165 34.6979 124.234 34.3263C123.863 35.0164 124.234 36.9258 124.234 37.8807C124.408 38.7989 124.278 39.7489 123.863 40.5864H123.916Z" fill="white"/>
</svg>
