<svg width="50" height="50" viewBox="0 0 50 50" fill="none" xmlns="http://www.w3.org/2000/svg">
<path d="M25.25 28.1873C25.2083 28.1873 25.1458 28.1873 25.1042 28.1873C25.0417 28.1873 24.9583 28.1873 24.8958 28.1873C20.1667 28.0415 16.625 24.354 16.625 19.8123C16.625 15.1873 20.3958 11.4165 25.0208 11.4165C29.6458 11.4165 33.4167 15.1873 33.4167 19.8123C33.3958 24.3748 29.8333 28.0415 25.3125 28.1873C25.2708 28.1873 25.2708 28.1873 25.25 28.1873ZM25 14.5207C22.0833 14.5207 19.7292 16.8957 19.7292 19.7915C19.7292 22.6457 21.9583 24.9582 24.7917 25.0623C24.8542 25.0415 25.0625 25.0415 25.2708 25.0623C28.0625 24.9165 30.25 22.6248 30.2708 19.7915C30.2708 16.8957 27.9167 14.5207 25 14.5207Z" fill="white"/>
<path d="M25 47.396C19.3958 47.396 14.0417 45.3127 9.89584 41.521C9.52084 41.1877 9.35417 40.6877 9.39584 40.2085C9.66667 37.7293 11.2083 35.4168 13.7708 33.7085C19.9792 29.5835 30.0417 29.5835 36.2292 33.7085C38.7917 35.4377 40.3333 37.7293 40.6042 40.2085C40.6667 40.7085 40.4792 41.1877 40.1042 41.521C35.9583 45.3127 30.6042 47.396 25 47.396ZM12.6667 39.7918C16.125 42.6877 20.4792 44.271 25 44.271C29.5208 44.271 33.875 42.6877 37.3333 39.7918C36.9583 38.521 35.9583 37.2918 34.4792 36.2918C29.3542 32.8752 20.6667 32.8752 15.5 36.2918C14.0208 37.2918 13.0417 38.521 12.6667 39.7918Z" fill="white"/>
<path d="M25 47.3957C12.6458 47.3957 2.60416 37.354 2.60416 24.9998C2.60416 12.6457 12.6458 2.604 25 2.604C37.3542 2.604 47.3958 12.6457 47.3958 24.9998C47.3958 37.354 37.3542 47.3957 25 47.3957ZM25 5.729C14.375 5.729 5.72916 14.3748 5.72916 24.9998C5.72916 35.6248 14.375 44.2707 25 44.2707C35.625 44.2707 44.2708 35.6248 44.2708 24.9998C44.2708 14.3748 35.625 5.729 25 5.729Z" fill="white"/>
</svg>
