<svg width="36" height="36" viewBox="0 0 36 36" fill="none" xmlns="http://www.w3.org/2000/svg">
<path fill-rule="evenodd" clip-rule="evenodd" d="M15.1597 13.768C14.1168 12.0886 13.3979 10.2286 13.0402 8.28431C13.0045 8.14421 12.922 8.02047 12.8065 7.93351C12.691 7.84654 12.5493 7.80156 12.4047 7.80596C12.2602 7.81036 12.1215 7.8639 12.0115 7.95773C11.9015 8.05156 11.8267 8.18009 11.7996 8.32211C10.7965 13.1632 7.30947 19.1532 2.80857 19.0924C2.57424 19.0614 2.33719 19.1248 2.14959 19.2686C1.96199 19.4124 1.83919 19.6249 1.80822 19.8592C1.77725 20.0936 1.84064 20.3306 1.98444 20.5182C2.12825 20.7058 2.34069 20.8286 2.57502 20.8596C6.70602 22.0611 9.12522 23.6865 11.5039 31.2505C11.5704 31.4553 11.7033 31.6321 11.8815 31.7529C12.0597 31.8737 12.2731 31.9316 12.4879 31.9175C12.7028 31.9034 12.9068 31.8181 13.0677 31.675C13.2286 31.532 13.3372 31.3394 13.3764 31.1277C13.9358 28.7553 15.0763 26.5593 16.6953 24.7372C18.3143 22.9151 20.3608 21.5242 22.6509 20.6895C22.7931 20.629 22.9132 20.5262 22.995 20.3952C23.0768 20.2641 23.1164 20.1111 23.1083 19.9568C23.1001 19.8025 23.0448 19.6544 22.9497 19.5326C22.8546 19.4109 22.7244 19.3213 22.5766 19.276C19.607 18.2271 17.0223 16.3077 15.1597 13.768ZM12.5596 10.9627C12.11 12.8522 11.2894 14.6336 10.1455 16.2032C9.00153 17.7729 7.55708 19.0996 5.89602 20.1063C7.93599 21.0479 9.63526 22.5968 10.7614 24.541C13.9596 29.7102 10.5036 28.4277 15.3339 23.5866C21.0889 17.8275 22.3296 21.9018 17.7004 18.1056C15.3751 16.2314 13.5989 13.7627 12.5596 10.9627Z" fill="#F2637E"/>
<path fill-rule="evenodd" clip-rule="evenodd" d="M27.4501 3.39709C27.446 3.25638 27.3861 3.12307 27.2837 3.02648C27.1813 2.92989 27.0447 2.87795 26.904 2.88206C26.7633 2.88618 26.63 2.94603 26.5334 3.04844C26.4368 3.15084 26.3848 3.28743 26.389 3.42814C26.333 4.59516 25.9735 5.72737 25.3458 6.7128C24.7181 7.69824 23.8441 8.50277 22.8101 9.04684C21.9258 9.39668 20.9898 9.59828 20.0399 9.64354C19.8491 9.67679 19.6748 9.77251 19.5443 9.91566C19.4138 10.0588 19.3347 10.2413 19.3192 10.4343C19.3037 10.6274 19.3529 10.8201 19.4589 10.9822C19.5649 11.1443 19.7218 11.2665 19.9049 11.3297C21.3807 11.9485 22.703 12.8833 23.7787 14.0681C24.8544 15.2529 25.6573 16.6591 26.1311 18.1877C26.2055 18.3572 26.3277 18.5014 26.4826 18.6027C26.6376 18.7039 26.8188 18.7578 27.0039 18.7578C27.189 18.7578 27.3701 18.7039 27.5251 18.6027C27.6801 18.5014 27.8023 18.3572 27.8767 18.1877C28.8639 15.2088 30.9521 12.7198 33.7141 11.2298C33.8638 11.1664 33.9905 11.0586 34.0771 10.921C34.1637 10.7834 34.206 10.6225 34.1984 10.4601C34.1907 10.2977 34.1335 10.1415 34.0343 10.0127C33.9352 9.88379 33.7989 9.78841 33.6439 9.73939C32.112 9.38706 30.7137 8.60195 29.6154 7.47753C28.5171 6.35312 27.7664 4.93676 27.4501 3.39709ZM22.856 10.7816C23.8621 10.3554 24.7601 9.70973 25.4845 8.89173C26.2088 8.07373 26.7411 7.10413 27.0424 6.05389C28.0038 8.01362 29.5902 9.59762 31.5514 10.5561C29.6356 11.792 28.0872 13.5199 27.068 15.5592C26.2017 13.5598 24.7231 11.887 22.8452 10.7816H22.856Z" fill="#F2637E"/>
<path fill-rule="evenodd" clip-rule="evenodd" d="M31.3245 27.4072C30.0263 28.1425 28.8571 29.0851 27.8631 30.1977C27.1978 28.9588 26.1796 27.9453 24.9377 27.2857C26.1649 26.4083 27.1191 25.2018 27.6903 23.8054C28.0548 24.3792 28.4963 24.8989 29.0039 25.3498C29.1076 25.4293 29.2372 25.4672 29.3674 25.456C29.4976 25.4448 29.6189 25.3853 29.7076 25.2893C29.7962 25.1933 29.8457 25.0676 29.8463 24.9369C29.847 24.8062 29.7988 24.68 29.7113 24.583C29.0179 23.8092 28.4795 22.9096 28.125 21.933C28.0686 21.8101 27.976 21.7073 27.8596 21.6385C27.7433 21.5696 27.6087 21.5379 27.4738 21.5476C27.3389 21.5573 27.2102 21.6079 27.1049 21.6927C26.9996 21.7775 26.9226 21.8924 26.8844 22.0221C26.5804 23.0895 26.0095 24.0619 25.2256 24.8475C24.4416 25.6331 23.4705 26.206 22.4037 26.5122C22.2095 26.5647 22.0381 26.6797 21.9158 26.8394C21.7935 26.9991 21.7273 27.1946 21.7273 27.3957C21.7273 27.5969 21.7935 27.7924 21.9158 27.9521C22.0381 28.1118 22.2095 28.2268 22.4037 28.2793C23.4312 28.5256 24.3746 29.0409 25.1371 29.7724C25.8997 30.5038 26.4538 31.425 26.7426 32.4414C26.7973 32.626 26.9069 32.7895 27.0569 32.9102C27.207 33.0308 27.3902 33.1029 27.5822 33.1167C27.7743 33.1304 27.9659 33.0853 28.1317 32.9874C28.2974 32.8894 28.4293 32.7432 28.5098 32.5683C29.6138 30.663 31.1971 29.0796 33.1025 27.9756C33.2124 27.9148 33.3033 27.8248 33.3653 27.7156C33.4272 27.6063 33.4577 27.4821 33.4533 27.3566C33.449 27.2311 33.41 27.1092 33.3407 27.0045C33.2714 26.8998 33.1744 26.8163 33.0606 26.7633C32.1976 26.5024 31.3809 26.108 30.6401 25.5942C30.1568 25.0704 28.53 25.9155 31.3245 27.4072Z" fill="white"/>
</svg>
