<svg width="130" height="130" viewBox="0 0 130 130" fill="none" xmlns="http://www.w3.org/2000/svg">
<g clip-path="url(#clip0_28_3707)">
<path fill-rule="evenodd" clip-rule="evenodd" d="M72.0418 74.0456C72.7186 73.3027 73.5637 72.733 74.5062 72.3843C75.4487 72.0355 76.4611 71.918 77.4585 72.0414C77.8823 72.1851 78.3458 72.1545 78.747 71.9564C79.1483 71.7583 79.4544 71.409 79.5981 70.9852C79.7417 70.5614 79.7111 70.0979 79.5131 69.6966C79.315 69.2954 78.9656 68.9893 78.5418 68.8456C76.7881 68.3322 74.9289 68.2975 73.1573 68.7452C71.3856 69.1928 69.7661 70.1065 68.4668 71.3914C67.5931 70.135 66.4132 69.1223 65.0388 68.4493C63.6643 67.7763 62.1409 67.4653 60.6126 67.5456C59.3668 68.6289 60.6127 73.9914 65.271 75.7248C61.9668 81.6289 63.0501 85.6914 66.0835 88.2914C66.8543 88.9981 67.7805 89.5135 68.7874 89.7958C69.7943 90.0781 70.8535 90.1194 71.8793 89.9164C73.8801 89.1978 75.7204 88.0936 77.296 86.6664C79.6413 84.7777 82.2749 83.278 85.096 82.2248C87.6418 81.5206 89.4293 83.4164 86.5043 87.1539C84.0049 90.3494 80.5514 92.6644 76.646 93.7623C76.1432 93.8197 75.6838 94.0746 75.3689 94.4707C75.054 94.8669 74.9094 95.372 74.9668 95.8748C75.0243 96.3776 75.2791 96.837 75.6753 97.1519C76.0715 97.4668 76.5765 97.6114 77.0793 97.5539C80.1553 97.1186 83.0865 95.9684 85.6377 94.1956C86.7752 98.1498 92.1918 99.6123 93.3835 98.3123C94.5751 97.0123 92.5168 92.0831 89.4835 91.1623C91.4699 89.2747 92.8149 86.8121 93.3293 84.1206C93.4652 83.1343 93.3983 82.1307 93.1326 81.1713C92.867 80.2118 92.4082 79.3167 91.7844 78.5407C91.1607 77.7648 90.385 77.1244 89.505 76.6588C88.625 76.1933 87.6592 75.9123 86.6668 75.8331C82.1564 76.5024 77.9092 78.3734 74.371 81.2498C73.4119 82.1311 72.379 82.9285 71.2835 83.6331C70.3626 84.0664 68.521 82.9831 69.3335 79.7331C69.8005 77.6589 70.7259 75.7156 72.0418 74.0456Z" fill="white"/>
<path fill-rule="evenodd" clip-rule="evenodd" d="M122.742 81.7374C118.354 75.0749 95.2251 52.4333 89.4293 46.3124C80.3835 36.7249 74.1543 26.0541 62.346 23.3999C54.9251 21.6666 17.3876 26.3249 23.346 32.4999C23.5225 32.6801 23.7332 32.8232 23.9657 32.9209C24.1982 33.0186 24.4479 33.069 24.7001 33.069C24.9523 33.069 25.202 33.0186 25.4346 32.9209C25.6671 32.8232 25.8778 32.6801 26.0543 32.4999C28.6543 29.9541 47.1251 27.4624 61.371 28.0041C67.903 30.2985 73.4863 34.7004 77.2418 40.5166C85.096 50.3749 113.046 79.4083 116.729 84.3916C117.382 85.3673 117.944 86.4008 118.408 87.4791C111.01 98.7563 102.015 108.901 91.7043 117.596C88.1797 120.503 84.1097 122.676 79.7335 123.987C71.5126 117.793 63.6799 111.1 56.2793 103.946C47.478 95.1456 39.1257 85.9075 31.2543 76.2666C27.4358 70.7288 25.4297 64.1427 25.5126 57.4166C25.5126 56.9713 25.3357 56.5441 25.0208 56.2292C24.7059 55.9143 24.2788 55.7374 23.8335 55.7374C23.3881 55.7374 22.961 55.9143 22.6461 56.2292C22.3312 56.5441 22.1543 56.9713 22.1543 57.4166C22.8585 72.6916 26.1085 76.4833 35.9668 88.2916C46.8801 102.401 59.4667 115.134 73.4501 126.208C74.54 127.717 76.092 128.83 77.871 129.377C79.65 129.924 81.5589 129.877 83.3085 129.242C97.446 124.908 113.425 104.379 121.55 94.0333C124.583 90.0791 126.533 87.6416 122.742 81.7374Z" fill="white"/>
<path fill-rule="evenodd" clip-rule="evenodd" d="M59.8543 55.5206C60.7908 52.5329 60.8443 49.3383 60.0083 46.3209C59.1723 43.3036 57.4823 40.592 55.1418 38.5123C49.7251 34.2331 39.8126 38.5123 37.7543 40.029C35.6544 41.7844 33.8764 43.8923 32.5001 46.2581C26.2852 42.0781 20.6406 37.1072 15.7084 31.4706C9.4251 24.5373 3.35843 12.7831 10.4001 6.66229C13.3793 4.00812 18.6334 5.41646 23.7793 8.44979C35.6418 15.2206 35.2084 22.3165 38.4584 20.3665C43.0084 17.604 28.9251 5.41646 22.9668 2.43729C8.9376 -4.65854 -0.541569 4.87479 1.02926 16.7373C2.97926 31.1456 19.1209 44.7415 31.9584 51.0248C31.9043 67.004 55.0876 72.1498 59.8543 55.5206ZM51.4584 42.8998C52.7195 44.3675 53.5853 46.1327 53.9739 48.0284C54.3625 49.9241 54.2611 51.8876 53.6793 53.7331C53.0353 55.6244 51.7904 57.253 50.1344 58.3706C48.4783 59.4882 46.5022 60.0334 44.5074 59.9229C42.5126 59.8124 40.6087 59.0524 39.0862 57.7587C37.5637 56.4651 36.5062 54.7089 36.0751 52.7581C39.353 54.1804 42.9034 54.8646 46.4751 54.7623C50.1043 53.8415 48.7501 49.6706 46.4751 50.2123C42.7336 50.9261 38.8607 50.1903 35.6418 48.154C40.5168 42.3581 48.1543 39.8665 51.4584 42.8998Z" fill="#F2637E"/>
<path fill-rule="evenodd" clip-rule="evenodd" d="M124.963 35.8583C105.734 27.5708 110.934 29.8458 84.0668 22.5333C83.6335 22.5333 80.871 21.1792 79.3543 22.2083C79.1095 22.4416 78.9336 22.7377 78.8459 23.0643C78.7583 23.3909 78.7622 23.7353 78.8573 24.0598C78.9524 24.3843 79.135 24.6763 79.3851 24.9039C79.6352 25.1315 79.9432 25.2858 80.2752 25.35C83.9692 26.4288 87.5881 27.7497 91.1085 29.3042C101.18 33.9864 111.549 38.0034 122.146 41.3292C126.642 43.3333 119.167 59.2583 119.221 62.9958C119.221 63.2448 119.27 63.4913 119.365 63.7213C119.461 63.9514 119.6 64.1603 119.776 64.3364C119.952 64.5124 120.161 64.6521 120.391 64.7474C120.621 64.8426 120.868 64.8917 121.117 64.8917C121.366 64.8917 121.612 64.8426 121.842 64.7474C122.072 64.6521 122.281 64.5124 122.457 64.3364C122.633 64.1603 122.773 63.9514 122.868 63.7213C122.964 63.4913 123.013 63.2448 123.013 62.9958C123.175 58.5 135.417 41.6 124.963 35.8583Z" fill="white"/>
</g>
<defs>
<clipPath id="clip0_28_3707">
<rect width="130" height="130" fill="white"/>
</clipPath>
</defs>
</svg>
