<svg width="130" height="130" viewBox="0 0 130 130" fill="none" xmlns="http://www.w3.org/2000/svg">
<path fill-rule="evenodd" clip-rule="evenodd" d="M28.5583 43.3331C29.3138 42.6618 30.2612 42.2449 31.2666 42.1414H32.0249H32.9999C34.5442 42.1275 36.0624 42.5399 37.3874 43.3331C37.7326 43.6771 38.2001 43.8702 38.6874 43.8702C39.1748 43.8702 39.6423 43.6771 39.9874 43.3331C40.3314 42.9879 40.5246 42.5204 40.5246 42.0331C40.5246 41.5457 40.3314 41.0782 39.9874 40.7331C38.897 39.0465 37.3592 37.6962 35.5458 36.8331C34.6676 36.4077 33.7049 36.1856 32.7291 36.1831C31.6763 36.0994 30.6219 36.3253 29.6958 36.8331C28.7336 37.3451 27.8895 38.0531 27.2177 38.9115C26.546 39.7698 26.0616 40.7594 25.7958 41.8164C25.689 42.0013 25.6196 42.2055 25.5918 42.4172C25.5639 42.6289 25.578 42.844 25.6334 43.0503C25.6887 43.2566 25.7842 43.4499 25.9143 43.6192C26.0444 43.7886 26.2066 43.9306 26.3916 44.0372C26.773 44.2274 27.2137 44.2601 27.619 44.1284C28.0243 43.9967 28.3616 43.7111 28.5583 43.3331Z" fill="white"/>
<path fill-rule="evenodd" clip-rule="evenodd" d="M48.4376 44.0916C49.6005 43.7713 50.8111 43.6613 52.0126 43.7666H53.6918C54.0525 43.7425 54.4144 43.7425 54.7751 43.7666C55.7164 43.7683 56.644 43.991 57.4835 44.4166C57.8287 44.7606 58.2961 44.9538 58.7835 44.9538C59.2708 44.9538 59.7383 44.7606 60.0835 44.4166C60.4275 44.0714 60.6206 43.604 60.6206 43.1166C60.6206 42.6293 60.4275 42.1618 60.0835 41.8166C58.9303 39.9061 57.0887 38.5104 54.9376 37.9166C54.3647 37.8107 53.7772 37.8107 53.2043 37.9166C52.3819 37.7517 51.535 37.7517 50.7126 37.9166C49.019 38.6726 47.5598 39.8699 46.4876 41.3833C46.3169 41.5113 46.1731 41.6717 46.0644 41.8554C45.9556 42.039 45.8842 42.2422 45.854 42.4535C45.8238 42.6647 45.8355 42.8799 45.8885 43.0866C45.9414 43.2933 46.0346 43.4876 46.1626 43.6583C46.2907 43.829 46.4511 43.9728 46.6347 44.0816C46.8183 44.1903 47.0216 44.2618 47.2328 44.292C47.4441 44.3221 47.6592 44.3104 47.8659 44.2575C48.0727 44.2045 48.2669 44.1113 48.4376 43.9833V44.0916Z" fill="white"/>
<path fill-rule="evenodd" clip-rule="evenodd" d="M34.6252 52.0541C34.3274 52.3579 34.1606 52.7662 34.1606 53.1916C34.1606 53.6169 34.3274 54.0253 34.6252 54.3291C35.6899 56.4502 37.4216 58.1629 39.5543 59.2041C40.5326 59.623 41.5786 59.8615 42.6418 59.9083C43.6282 59.9675 44.6175 59.8576 45.5668 59.5833C47.7752 58.8141 49.6754 57.3509 50.9835 55.4124C51.2458 55.0604 51.3737 54.6263 51.3442 54.1883C51.3147 53.7503 51.1297 53.3372 50.8226 53.0236C50.5155 52.7099 50.1064 52.5163 49.6691 52.4776C49.2318 52.4389 48.7951 52.5576 48.4377 52.8124C46.7057 53.8767 44.6413 54.2625 42.6418 53.8958H41.0168C39.519 53.8399 38.062 53.3916 36.7918 52.5958C36.5683 52.2457 36.2192 51.9945 35.8163 51.8937C35.4133 51.793 34.9871 51.8504 34.6252 52.0541Z" fill="white"/>
<path fill-rule="evenodd" clip-rule="evenodd" d="M64.9042 71.4998C62.3679 70.065 59.6283 69.0239 56.7792 68.4123H56.1834C58.615 67.1229 60.842 65.48 62.7917 63.5373C64.8638 61.5546 66.6015 59.2499 67.9376 56.7123C70.1616 52.735 71.7688 48.443 72.7042 43.9831C73.4076 40.826 73.4076 37.5528 72.7042 34.3956C71.8672 31.0902 70.534 27.9307 68.7501 25.0248C66.9935 21.9787 64.6122 19.339 61.7626 17.279C55.8628 13.3249 48.646 11.8465 41.6667 13.1623C34.8721 14.1295 28.6075 17.3764 23.9001 22.3706C22.8513 23.4015 21.8569 24.4863 20.9209 25.6206C19.7307 27.0799 18.6959 28.6592 17.8334 30.3331C14.7332 36.3622 14.1488 43.3741 16.2084 49.8331C17.3612 53.5695 19.1979 57.0592 21.6251 60.1248C20.5091 60.2082 19.4127 60.464 18.3751 60.8831C15.5789 61.9776 13.2322 63.9809 11.7126 66.5706C9.60759 70.0846 8.4158 74.0696 8.2459 78.1623C8.16477 79.0814 8.16477 80.0058 8.2459 80.9248C6.3091 83.7716 4.69237 86.8234 3.42507 90.0248C2.7268 91.877 2.16556 93.7779 1.7459 95.7123C1.36673 97.6623 1.04173 99.5581 0.825066 101.508C0.354159 106.115 0.245492 110.751 0.500066 115.375C0.492847 115.617 0.533367 115.858 0.619309 116.084C0.705251 116.31 0.834931 116.517 1.00094 116.693C1.16694 116.869 1.36602 117.011 1.58678 117.11C1.80755 117.209 2.04568 117.264 2.28757 117.271C2.76676 117.271 3.22717 117.084 3.57104 116.751C3.9149 116.417 4.11514 115.962 4.12923 115.483C4.73439 110.322 5.65697 105.202 6.89173 100.154C7.37923 98.1498 7.81257 96.1456 8.30007 94.1415C8.78757 92.1373 8.8959 91.5415 9.16673 90.1873C9.43757 88.8331 9.65423 88.5623 9.8709 87.7498C10.3458 88.7368 10.9077 89.6794 11.5501 90.5665C12.699 92.0881 14.1903 93.3175 15.9031 94.1551C17.6159 94.9927 19.502 95.4148 21.4084 95.3873C23.4244 95.337 25.3696 94.6339 26.9519 93.3837C28.5342 92.1335 29.6681 90.4036 30.1834 88.454C30.4542 87.4248 30.7251 86.3956 30.9417 85.3123C31.1584 84.229 31.2667 83.3081 31.3751 82.279C32.9248 83.9532 34.9635 85.0954 37.2006 85.5428C39.4377 85.9903 41.7589 85.72 43.8334 84.7706C45.4162 84.1491 46.8543 83.2088 48.0584 82.0081C50.7028 79.451 52.579 76.2051 53.4751 72.6373C53.4751 72.6373 53.4751 72.6373 53.4751 72.3665C56.3618 73.1426 59.0798 74.4465 61.4917 76.2123C63.0272 77.3962 64.3781 78.8018 65.5001 80.3831C67.3339 82.8739 68.8106 85.6087 69.8876 88.5081C72.9703 96.2261 75.1338 104.28 76.3334 112.504C76.3538 112.739 76.4205 112.968 76.5298 113.177C76.639 113.386 76.7886 113.572 76.9699 113.723C77.1512 113.874 77.3606 113.987 77.586 114.057C77.8115 114.127 78.0485 114.151 78.2834 114.129C78.5283 114.116 78.7679 114.053 78.9873 113.943C79.2067 113.834 79.4012 113.68 79.5587 113.492C79.7162 113.304 79.8333 113.086 79.9028 112.85C79.9723 112.615 79.9926 112.368 79.9626 112.125C79.8966 103.389 78.5834 94.7064 76.0626 86.3415C74.0936 80.2929 70.1679 75.0714 64.9042 71.4998ZM42.2626 17.3331C47.9719 16.4866 53.7883 17.8632 58.5126 21.179C60.733 22.9201 62.5759 25.0947 63.9292 27.5706C64.5752 28.7198 65.1364 29.9147 65.6084 31.1456C61.6125 31.4915 57.587 31.1804 53.6917 30.2248C51.7887 29.8181 49.9084 29.3119 48.0584 28.7081C46.2167 28.0581 44.3751 27.354 42.6417 26.5956C39.0155 25.0461 35.5803 23.0831 32.4042 20.7456C35.4191 18.9487 38.7777 17.8046 42.2626 17.3873V17.3331ZM23.7917 28.1665C24.772 26.8515 25.859 25.6195 27.0417 24.4831C27.7459 23.8331 28.4501 23.1831 29.1542 22.6415C29.9667 23.6165 30.8334 24.5373 31.7542 25.4581L22.1667 30.5498C22.8709 29.7915 23.2501 28.9248 23.7917 28.2206V28.1665ZM28.6126 68.2498C28.601 70.2254 28.4563 72.1979 28.1792 74.154C27.9084 76.104 27.5834 78.1081 27.2042 80.004L25.3626 86.6665C25.0887 87.4656 24.5693 88.1577 23.8787 88.6441C23.188 89.1304 22.3614 89.3862 21.5167 89.3748C20.5683 89.3168 19.6456 89.0427 18.8194 88.5732C17.9932 88.1038 17.2854 87.4516 16.7501 86.6665C14.99 84.2034 14.0603 81.2436 14.0959 78.2165C13.937 74.9776 14.5496 71.7473 15.8834 68.7915C16.7044 66.9441 18.1138 65.4204 19.8917 64.4581C21.428 63.6728 23.1887 63.4432 24.8751 63.8081C25.5983 64.5855 26.3767 65.3096 27.2042 65.9748C27.7374 66.4247 28.2983 66.8408 28.8834 67.2206C28.7045 67.5536 28.6114 67.926 28.6126 68.304V68.2498ZM41.5584 79.0831C40.6236 79.4713 39.639 79.7266 38.6334 79.8415C37.4385 79.9371 36.2368 79.779 35.1073 79.3776C33.9778 78.9762 32.9458 78.3406 32.0792 77.5123V74.5873V69.6581C32.5135 69.9244 32.966 70.1597 33.4334 70.3623C35.9275 71.5873 38.6714 72.2177 41.4501 72.204C43.5465 72.159 45.6332 71.905 47.6792 71.4456L49.7917 71.7165C48.0042 75.0555 45.0851 77.6481 41.5584 79.029V79.0831ZM52.9876 63.104C51.2571 64.0013 49.4429 64.727 47.5709 65.2706C45.6871 65.8207 43.7373 66.1122 41.7751 66.1373C39.9073 66.1119 38.0643 65.7064 36.3584 64.9456C34.4424 64.0796 32.6262 63.0081 30.9417 61.7498C26.3046 58.5392 22.7382 54.0104 20.7042 48.7498C19.175 44.4196 19.0612 39.7155 20.3792 35.3165H21.1376C23.3209 35.2903 25.49 34.9622 27.5834 34.3415C28.4883 34.1294 29.3621 33.8017 30.1834 33.3665C31.0252 32.9252 31.8078 32.3792 32.5126 31.7415C33.5442 30.7323 34.4532 29.6051 35.2209 28.3831C36.7842 29.6482 38.431 30.8063 40.1501 31.8498C42.1399 32.9398 44.2249 33.8463 46.3792 34.5581C48.5299 35.2567 50.7429 35.7465 52.9876 36.0206C57.7082 36.5553 62.4875 36.1877 67.0709 34.9373C67.0709 34.9373 67.0709 35.3706 67.0709 35.6415C67.5853 38.0153 67.5853 40.4718 67.0709 42.8456C66.1478 46.6525 64.6695 50.3027 62.6834 53.679C61.5817 55.675 60.1949 57.4998 58.5667 59.0956C56.9217 60.6932 55.0398 62.0269 52.9876 63.0498V63.104Z" fill="white"/>
<path fill-rule="evenodd" clip-rule="evenodd" d="M122.267 69.4955C126.037 65.1922 128.417 59.848 129.092 54.1663C129.381 52.1394 129.508 50.0926 129.471 48.0455C129.384 46.5902 129.111 45.1521 128.658 43.7663C127.011 38.9643 123.858 34.8227 119.667 31.958C115.722 29.1574 111.24 27.2026 106.504 26.2163C104.482 25.7206 102.411 25.4482 100.329 25.4038C95.0976 26.1921 90.1921 28.4324 86.1704 31.87C82.1487 35.3075 79.1722 39.8045 77.5792 44.8496C67.2875 76.0496 102.604 77.6746 107.208 77.3496C113.047 76.7518 118.435 73.9414 122.267 69.4955ZM101.25 29.0871C102.77 29.2795 104.273 29.5873 105.746 30.008C109.878 30.9883 113.755 32.8345 117.121 35.4246C120.417 37.883 122.83 41.3411 124 45.283C124.289 46.5436 124.417 47.836 124.379 49.1288C124.379 49.833 124.379 50.5371 124.108 51.2413C119.668 50.0748 115.614 47.7581 112.354 44.5246C110.276 42.6251 108.356 40.56 106.613 38.3496C104.197 35.4686 102.057 32.3675 100.221 29.0871H101.25ZM96.7542 29.8455C97.4076 32.1637 98.2407 34.4275 99.2459 36.6163C98.4824 36.8355 97.7039 36.9984 96.9167 37.1038H93.8292H90.7959H86.3542C89.0545 33.7386 92.6641 31.2193 96.7542 29.8455ZM102.658 71.7705C101.37 71.7247 100.085 71.598 98.8125 71.3913C97.2384 71.2046 95.681 70.8967 94.1542 70.4705C92.7302 70.0973 91.3636 69.5325 90.0917 68.7913C86.3332 66.529 83.4585 63.0528 81.9419 58.9364C80.4254 54.8201 80.3577 50.3096 81.75 46.1496C82.2836 44.2661 83.0286 42.449 83.9709 40.733C85.649 41.7401 87.4778 42.4716 89.3875 42.8996C91.3316 43.3339 93.3476 43.3339 95.2917 42.8996C97.2166 42.2828 99.0414 41.3887 100.708 40.2455C100.979 40.6788 101.196 41.1663 101.521 41.6538C102.63 43.3602 103.899 44.9564 105.313 46.4205C106.743 47.897 108.322 49.2221 110.025 50.3746C113.933 53.0693 118.503 54.6429 123.242 54.9246C122.486 58.9716 120.609 62.7251 117.825 65.758C114.64 68.9727 110.495 71.0641 106.017 71.7163C104.902 71.8503 103.777 71.8685 102.658 71.7705Z" fill="white"/>
<path fill-rule="evenodd" clip-rule="evenodd" d="M70.9168 68.5749C70.7393 68.4671 70.5421 68.3955 70.3368 68.3644C70.1314 68.3333 69.9219 68.3432 69.7204 68.3936C69.5189 68.444 69.3294 68.5338 69.1629 68.6579C68.9963 68.782 68.856 68.9379 68.7501 69.1165C68.6433 69.3015 68.574 69.5056 68.5461 69.7173C68.5183 69.9291 68.5324 70.1442 68.5877 70.3505C68.6431 70.5567 68.7385 70.75 68.8686 70.9194C68.9987 71.0887 69.1609 71.2308 69.346 71.3374C72.0839 73.1242 74.9437 74.717 77.9043 76.104C84.296 79.2457 90.8501 81.5207 97.1876 84.9874C95.2626 86.5621 93.0018 87.674 90.5793 88.2374C89.6671 88.4204 88.7445 88.547 87.8168 88.6165C85.2038 88.7286 82.6024 88.2083 80.2335 87.0999C80.0627 86.9349 79.8579 86.8093 79.6334 86.7319C79.4089 86.6546 79.1702 86.6274 78.934 86.6522C78.6979 86.6771 78.4701 86.7534 78.2666 86.8757C78.0631 86.9981 77.8889 87.1636 77.7563 87.3606C77.6236 87.5575 77.5358 87.7811 77.4989 88.0157C77.4619 88.2503 77.4769 88.4901 77.5426 88.7182C77.6084 88.9464 77.7233 89.1574 77.8794 89.3363C78.0355 89.5153 78.2289 89.6579 78.446 89.754C80.9007 92.1644 84.0078 93.8028 87.3835 94.4665C88.9562 94.702 90.5606 94.6098 92.096 94.1957C93.6101 93.8051 95.0414 93.1445 96.321 92.2457C98.2617 90.7515 99.9137 88.9159 101.196 86.829C103.325 87.8399 105.341 89.0747 107.208 90.5124C108.986 91.7869 110.526 93.3636 111.758 95.1707C113.668 97.9521 115.199 100.976 116.308 104.162C117.446 107.508 118.351 110.929 119.017 114.4C119.056 114.636 119.142 114.863 119.27 115.065C119.398 115.268 119.566 115.442 119.763 115.579C119.96 115.715 120.183 115.811 120.417 115.859C120.652 115.908 120.894 115.909 121.129 115.862C121.599 115.782 122.02 115.523 122.303 115.139C122.586 114.755 122.709 114.277 122.646 113.804C122.167 109.367 121.297 104.98 120.046 100.696C119.123 97.6867 117.85 94.7961 116.254 92.0832C114.832 89.6554 112.999 87.4927 110.838 85.6915C101.467 78.054 80.0168 73.2332 70.9168 68.5749Z" fill="#F2637E"/>
<path fill-rule="evenodd" clip-rule="evenodd" d="M91.5542 51.5125H92.6375H93.3417C94.1195 51.6947 94.8319 52.0884 95.4 52.65C95.6317 53.032 95.998 53.3133 96.4268 53.4386C96.8557 53.5639 97.3158 53.5241 97.7168 53.3271C98.1177 53.13 98.4303 52.79 98.593 52.3739C98.7557 51.9579 98.7567 51.496 98.5958 51.0792C98.3663 50.0146 97.9019 49.0147 97.2366 48.1525C96.5712 47.2904 95.7217 46.5877 94.75 46.0959C94.2174 45.8022 93.6242 45.6354 93.0167 45.6084C92.1238 45.4557 91.2062 45.5494 90.3625 45.8792C88.7227 46.5571 87.352 47.7564 86.4625 49.2917C86.1807 49.5928 86.0239 49.9897 86.0239 50.4021C86.0239 50.8145 86.1807 51.2114 86.4625 51.5125C86.7571 51.8069 87.1565 51.9723 87.5729 51.9723C87.9894 51.9723 88.3888 51.8069 88.6833 51.5125C89.6307 51.3214 90.6068 51.3214 91.5542 51.5125Z" fill="white"/>
<path fill-rule="evenodd" clip-rule="evenodd" d="M110.296 52.5416C109.852 52.2371 109.357 52.0168 108.833 51.8916C108.047 51.6393 107.218 51.5472 106.396 51.6208C104.71 51.914 103.136 52.6633 101.846 53.7874C101.466 53.9539 101.168 54.2637 101.016 54.6493C100.864 55.0348 100.87 55.4649 101.033 55.8458C101.11 56.0318 101.223 56.2007 101.366 56.3425C101.509 56.4843 101.679 56.5963 101.865 56.672C102.052 56.7476 102.252 56.7853 102.453 56.783C102.654 56.7806 102.853 56.7382 103.038 56.6583C104.252 56.6585 105.452 56.917 106.558 57.4166C106.964 57.4926 107.362 57.6013 107.75 57.7416C108.129 57.7416 108.617 57.7416 108.942 58.0124C109.267 58.2833 109.808 58.5541 110.079 59.0958C110.217 59.5475 110.528 59.9263 110.944 60.1496C111.36 60.3729 111.848 60.4224 112.3 60.2874C112.522 60.2252 112.729 60.1195 112.909 59.9764C113.089 59.8333 113.239 59.6557 113.35 59.454C113.461 59.2523 113.531 59.0305 113.555 58.8016C113.579 58.5727 113.558 58.3413 113.492 58.1208C113.44 57.0039 113.124 55.9153 112.568 54.9451C112.012 53.975 111.233 53.1511 110.296 52.5416Z" fill="white"/>
<path fill-rule="evenodd" clip-rule="evenodd" d="M101.954 61.858C100.827 61.8572 99.7154 61.5977 98.7043 61.0997C98.2553 60.9158 97.8208 60.6986 97.4043 60.4497C96.7332 60.1687 96.0818 59.843 95.4543 59.4747C94.165 58.9362 92.9749 58.1855 91.9335 57.2538C91.8545 57.0413 91.7305 56.8483 91.5699 56.6882C91.4093 56.5281 91.2159 56.4047 91.003 56.3265C90.7902 56.2482 90.5629 56.217 90.3369 56.2349C90.1108 56.2528 89.8913 56.3195 89.6935 56.4303C89.4956 56.5411 89.3241 56.6934 89.1907 56.8768C89.0573 57.0601 88.9652 57.2702 88.9207 57.4926C88.8762 57.715 88.8804 57.9443 88.9329 58.1649C88.9855 58.3855 89.0852 58.5921 89.2252 58.7705C89.6253 60.8088 90.6031 62.689 92.0418 64.1872C92.6778 64.8307 93.4318 65.3457 94.2627 65.7038C95.0703 66.1363 95.9525 66.412 96.8627 66.5163C98.9471 66.7501 101.055 66.3738 102.929 65.433C103.15 65.369 103.356 65.2622 103.535 65.1186C103.714 64.9751 103.863 64.7977 103.974 64.5965C104.085 64.3953 104.154 64.1743 104.18 63.946C104.205 63.7178 104.185 63.4869 104.121 63.2663C104.057 63.0458 103.95 62.8401 103.807 62.6609C103.663 62.4816 103.486 62.3324 103.284 62.2218C103.083 62.1111 102.862 62.0412 102.634 62.0159C102.406 61.9907 102.175 62.0107 101.954 62.0747V61.858Z" fill="white"/>
</svg>
