<svg width="130" height="130" viewBox="0 0 130 130" fill="none" xmlns="http://www.w3.org/2000/svg">
<path fill-rule="evenodd" clip-rule="evenodd" d="M102.525 46.7187C107.4 37.2125 116.467 19.1262 105.889 17.7125C97.4495 16.4557 88.9242 15.8689 80.3924 15.9575C80.6266 14.5068 80.7408 13.0393 80.7337 11.57C80.4412 5.23245 71.8612 6.49995 69.3749 6.49995C66.9279 6.38364 64.4777 6.64675 62.1112 7.27995C45.6824 10.8387 46.8037 10.0587 41.4899 11.375C37.1133 12.4287 32.899 14.0686 28.9612 16.25C28.0754 16.9141 27.3982 17.8178 27.0095 18.8544C26.6208 19.891 26.5368 21.0172 26.7674 22.1C26.7674 23.27 30.3749 39.1137 31.1062 41.9412C32.3737 47.1087 32.9099 47.9375 35.5424 58.6137C35.8837 60.0275 35.9324 62.5137 38.0287 62.7087C38.2209 62.7289 38.4152 62.7108 38.6004 62.6554C38.7856 62.6 38.958 62.5085 39.1076 62.3861C39.2572 62.2637 39.381 62.1129 39.472 61.9423C39.5629 61.7718 39.6192 61.5849 39.6374 61.3925C39.6374 59.7837 37.1512 53.6412 34.1774 33.6537C40.1249 35.0675 51.2887 23.9525 49.8749 15.0312C64.4999 12.2525 63.3787 10.8875 69.3749 10.6925C71.2762 10.6925 75.9562 9.61995 77.1262 11.18C77.6137 11.8137 77.1262 15.2262 77.3699 16.055C74.8349 16.055 61.5749 16.835 59.8199 18.7362C58.1412 21.5104 57.2951 24.7086 57.3824 27.95C57.0899 30.1925 54.2624 54.4212 54.6524 56.5662C54.6555 56.7941 54.7085 57.0185 54.8076 57.2237C54.9067 57.4289 55.0496 57.6099 55.2262 57.7539C55.4027 57.898 55.6088 58.0016 55.8297 58.0575C56.0506 58.1134 56.2811 58.1202 56.5049 58.0775C57.2849 58.0775 60.6487 35.75 60.6974 35.36C62.583 35.8742 64.5649 35.9256 66.4745 35.5097C68.3842 35.0938 70.1652 34.223 71.6662 32.9712C73.5459 31.672 75.1032 29.9596 76.2186 27.9654C77.334 25.9711 77.978 23.7479 78.1012 21.4662H90.1912C89.728 23.3486 89.6878 25.3103 90.0737 27.21C90.4596 29.1097 91.2618 30.9003 92.4227 32.4528C93.5836 34.0053 95.0742 35.2811 96.7873 36.1885C98.5004 37.0958 100.393 37.612 102.33 37.7C101.355 40.1375 100.282 42.575 99.1612 45.0612L97.6987 49.1075C97.0649 51.0575 100.087 52.6662 100.916 50.765C101.16 50.0825 100.721 51.2037 102.525 46.7187ZM33.6899 30.3387C33.2024 26.9262 32.2762 22.3925 32.2762 22.295C31.8374 18.785 33.0074 20.15 36.2737 18.785C39.4169 17.4841 42.6835 16.5041 46.0237 15.86C45.3412 19.6625 37.4924 29.7537 33.6899 30.3387ZM68.8874 28.1937C62.7449 33.0687 64.0124 31.6062 61.2824 31.9962C61.6849 28.977 62.2546 25.9824 62.9887 23.0262C63.4274 23.0262 67.8637 22.1 74.6399 21.6612C73.8599 24.3912 70.3499 26.975 68.8874 28.1937ZM97.6987 29.9975C92.8237 25.1225 93.6524 22.2462 93.5549 21.8075C97.5037 21.8075 101.452 22.3437 105.304 22.7337C107.351 22.7337 104.475 31.9475 103.792 33.9462C101.413 33.2657 99.2917 31.8908 97.6987 29.9975Z" fill="#F2637E"/>
<path fill-rule="evenodd" clip-rule="evenodd" d="M115.882 78.6501C114.615 73.1413 111.251 68.9001 105.596 69.5338C104.914 68.3638 107.644 57.8338 99.4537 54.1776C98.4258 53.6757 97.3223 53.3463 96.1874 53.2026C93.8389 52.8623 91.4449 53.3445 89.4112 54.5676C86.8274 55.7863 75.9074 59.0526 75.9074 59.1501C73.6162 59.7351 51.5324 63.6838 45.3412 64.0251C38.2237 64.2688 26.4262 63.2938 31.0087 57.7363C31.2656 57.4573 31.4083 57.0919 31.4083 56.7126C31.4083 56.3333 31.2656 55.9679 31.0087 55.6888C29.1074 54.0801 26.8162 58.3213 26.9624 60.8563C27.3037 67.1451 39.1987 68.9488 45.4874 69.1926C65.9624 69.9238 91.0199 59.0526 92.1899 56.7126C99.5024 57.9313 101.111 63.6351 102.281 71.3376C99.6974 74.9938 96.7237 73.1413 88.5824 74.8963C82.4887 76.2126 78.8324 79.1863 79.1737 85.4263C79.2223 87.6934 79.9369 89.8961 81.2286 91.7599C82.5202 93.6236 84.3317 95.0661 86.4374 95.9076C87.8713 96.3735 89.3378 96.732 90.8249 96.9801C94.8978 97.8732 99.1243 97.7896 103.159 96.7363C102.671 110.289 101.16 110.24 93.4087 112.873C80.8799 116.968 40.9537 121.306 30.0337 114.53C23.3062 110.825 22.2337 104 20.6249 97.0288C18.3988 87.9257 17.1567 78.6098 16.9199 69.2413C16.6762 54.2751 17.6999 54.1288 26.6699 47.6451C26.9651 47.3717 27.1508 47.0003 27.1923 46.6002C27.2339 46.2 27.1285 45.7984 26.8958 45.4702C26.6631 45.1421 26.319 44.9097 25.9276 44.8166C25.5362 44.7234 25.1243 44.7757 24.7687 44.9638C15.0187 51.7401 13.2637 52.8126 12.9712 69.3388C12.8355 78.9994 13.7674 88.6454 15.7499 98.1013C17.5537 106.828 18.7724 114.335 26.6699 119.259C42.2212 129.009 97.1624 120.478 103.646 111.118C105.846 106.317 106.705 101.011 106.132 95.7613C109.559 94.5803 112.438 92.1923 114.232 89.0433C116.027 85.8944 116.613 82.1999 115.882 78.6501ZM91.9462 91.6663C90.0344 91.4907 88.1859 90.8911 86.5349 89.9113C83.9512 87.8151 82.9762 82.5501 85.8524 80.6976C92.6774 76.3588 101.55 80.0151 105.352 72.8001C105.791 72.8001 111.007 71.2888 112.226 79.3813C113.494 89.3751 101.501 93.9088 91.9462 91.6663Z" fill="white"/>
<path fill-rule="evenodd" clip-rule="evenodd" d="M83.3662 51.3502C85.1163 50.6511 86.9913 50.3192 88.875 50.3752C89.3137 52.8614 93.75 51.8864 93.4087 49.9364C92.97 46.4264 90.8737 45.4514 87.2662 45.0614C85.4801 44.9043 83.6837 45.2124 82.052 45.9556C80.4202 46.6989 79.0088 47.852 77.955 49.3027C76.9968 50.9746 76.5399 52.8869 76.6387 54.8114C76.2 56.7127 80.5875 56.2739 80.6362 54.5189C81.5625 52.3252 82.05 51.9352 83.3662 51.3502Z" fill="#F2637E"/>
</svg>
