<svg width="1075" height="1075" viewBox="0 0 1075 1075" fill="none" xmlns="http://www.w3.org/2000/svg">
<g opacity="0.2" clip-path="url(#clip0_28_1243)">
<path fill-rule="evenodd" clip-rule="evenodd" d="M495.489 724.898C498.124 711.008 502.361 697.47 508.113 684.555C493.113 672.138 480.456 657.137 470.739 640.261C458.869 619.033 452.067 595.349 450.862 571.057C450.98 537.611 461.76 505.073 481.635 478.172C500.108 450.787 526.192 429.406 556.669 416.665C587.305 406.51 620.369 406.306 651.128 416.082C676.789 424.014 700.627 436.946 721.267 454.132C724.629 451.066 728.376 448.451 732.414 446.354C741.918 441.168 752.022 437.167 762.499 434.441C785.432 429.833 809.196 431.71 831.121 439.862C853.046 448.014 872.264 462.117 886.616 480.588C902.728 498.444 913.41 520.528 917.407 544.244C921.404 567.96 918.55 592.325 909.181 614.475C900.592 633.494 888.881 650.941 874.532 666.093C859.373 681.436 840.851 693.04 820.431 699.985C812.179 702.834 803.765 705.193 795.235 707.05C788.578 708.184 781.833 708.718 775.081 708.645C775.081 708.645 775.081 708.645 773.993 707.717L773.877 711.377C775.92 725.944 776.948 740.635 776.953 755.344C773.151 780.523 761.518 803.866 743.702 822.061C727.156 839.908 706.745 853.733 684.033 862.478C664.728 868.915 644.27 871.156 624.028 869.052C603.787 866.947 584.228 860.545 566.66 850.273C548.649 841.136 532.887 828.121 520.507 812.164C508.128 796.207 499.439 777.705 495.066 757.988C493.411 747.008 493.554 735.832 495.489 724.898ZM583.927 819.905C596.947 827.171 611.349 831.619 626.199 832.958C641.049 834.298 656.015 832.501 670.125 827.683C687.178 820.844 702.487 810.278 714.929 796.758C727.098 784.311 735.056 768.36 737.683 751.152C739.637 737.41 733.582 719.84 734.819 704.734C735.565 693.374 740.322 682.648 748.242 674.469C750.029 672.495 752.202 670.91 754.627 669.811C757.051 668.712 759.676 668.123 762.338 668.08C767.89 668.311 773.422 668.889 778.902 669.811C783.296 669.902 787.686 669.486 791.986 668.572C797.565 667.319 803.298 665.446 808.442 663.822C823.465 658.971 837.174 650.74 848.517 639.761C859.694 628.266 868.793 614.92 875.409 600.316C882.638 584.47 885.163 566.88 882.684 549.639C880.204 532.398 872.825 516.233 861.423 503.065C851.046 488.387 836.803 476.874 820.276 469.805C803.749 462.736 785.585 460.388 767.804 463.021C760.966 463.773 754.219 465.191 747.656 467.253C741.78 469.438 736.393 472.759 731.8 477.026C730.39 478.531 728.571 479.591 726.566 480.076C724.38 481.113 721.942 481.498 719.543 481.184C717.144 480.871 714.887 479.872 713.041 478.308C691.966 462.662 667.708 451.843 641.986 446.618C617.874 440.913 592.584 442.844 569.618 452.144C546.628 462.842 527.1 479.775 513.255 501.019C498.111 521.004 489.345 545.093 488.104 570.137C488.319 588.96 492.624 607.51 500.723 624.503C509.181 642.295 521.356 658.066 536.427 670.754C549.476 681.889 534.421 688.962 528.297 724.329C526.434 734.593 526.647 745.127 528.924 755.307C532.975 769.365 539.976 782.398 549.46 793.537C558.945 804.676 570.695 813.665 583.927 819.905Z" fill="#565459"/>
<path fill-rule="evenodd" clip-rule="evenodd" d="M667.905 374.397C646.981 370.314 628.001 359.406 613.939 343.382C601.586 330.045 592.3 314.168 586.731 296.863C582.842 283.179 583.986 268.554 589.958 255.642C592.215 251.154 594.862 246.873 597.868 242.848L610.488 228.059L612.529 225.666C608.71 221.552 605.119 217.233 601.77 212.727C598.888 207.969 596.328 203.022 594.109 197.921C591.466 191.671 589.457 185.172 588.111 178.521C586.545 171.547 586.066 165.501 585.057 157.875C583.819 154.96 583.782 151.675 584.955 148.733C586.127 145.792 588.414 143.433 591.317 142.169C594.131 140.967 597.298 140.885 600.17 141.939C603.043 142.993 605.405 145.104 606.774 147.841C611.283 153.568 615.697 158.086 619.803 163.844C623.61 169.282 627.042 174.973 630.075 180.878C632.422 185.38 634.483 190.026 636.246 194.788C639.053 202.069 640.465 209.664 643.087 217.163C660.675 215.644 678.155 221.108 691.747 232.374C708.546 246.148 720.764 264.7 726.784 285.573C729.665 296.733 730.212 308.366 728.391 319.747C726.57 331.127 722.42 342.01 716.201 351.713C711.382 359.927 704.189 366.49 695.569 370.539C686.948 374.588 677.304 375.933 667.905 374.397ZM701.567 297.507C698.537 279.334 690.14 262.484 677.457 249.121C670.124 241.285 660.241 236.316 649.577 235.104C642.571 235.423 635.759 237.502 629.768 241.148C623.778 244.795 618.803 249.893 615.302 255.97C611.802 262.048 609.889 268.909 609.741 275.921C609.593 282.932 611.213 289.868 614.454 296.088C620.91 308.582 629.415 319.905 639.616 329.586C648.252 339.382 659.24 346.818 671.544 351.192C677.967 352.915 685.318 353.549 690.048 346.685C695.231 339.713 698.929 331.751 700.91 323.291C702.892 314.832 703.115 306.056 701.567 297.507Z" fill="#2C2C2E"/>
<path fill-rule="evenodd" clip-rule="evenodd" d="M497.054 286.116C512.915 301.765 523.22 322.174 526.396 344.228C526.971 356.069 524.188 367.832 518.367 378.16C512.547 388.488 503.926 396.961 493.499 402.602C474.618 414.584 451.805 418.719 429.921 414.125C418.111 410.749 407.165 404.876 397.822 396.904C388.479 388.932 380.957 379.046 375.765 367.915C365.849 347.006 362.51 323.582 366.188 300.735C367.936 292.276 371.34 284.247 376.205 277.109C381.069 269.972 387.298 263.867 394.532 259.148C392.46 256.474 390.608 253.636 388.994 250.663C385.78 245.212 382.959 239.539 380.552 233.688C378.026 227.398 377.547 221.352 374.836 215.28C372.722 212.915 371.63 209.811 371.797 206.644C371.965 203.477 373.378 200.505 375.728 198.377C378.16 196.29 381.31 195.235 384.508 195.436C387.706 195.638 390.698 197.08 392.849 199.455C399.347 203.681 405.269 208.734 410.466 214.487C414.046 217.976 417.095 221.971 419.516 226.344C422.12 230.325 424.292 234.572 425.995 239.013C427.14 242.097 427.937 245.299 428.373 248.56C433.767 247.524 453.039 239.914 497.054 286.116ZM394.754 302.935C393.154 320.544 396.74 338.236 405.07 353.833C408.511 360.854 413.355 367.095 419.303 372.171C425.25 377.246 432.176 381.048 439.651 383.34C453.45 385.77 467.656 382.832 479.359 375.127C484.786 372.912 489.501 369.25 492.991 364.539C496.48 359.829 498.609 354.251 499.146 348.413C498.049 331.16 491.336 314.74 480.032 301.66C468.43 287.127 453.46 275.643 436.418 268.203C427.356 268.589 418.59 271.533 411.132 276.694C406.624 279.577 402.816 283.428 399.983 287.967C397.15 292.506 395.364 297.62 394.754 302.935Z" fill="#2C2C2E"/>
<path fill-rule="evenodd" clip-rule="evenodd" d="M169.027 666.58C169.406 663.397 171.012 660.488 173.504 658.472C175.996 656.456 179.177 655.494 182.369 655.789C189.63 654.57 196.992 654.055 204.353 654.252C208.961 654.334 213.552 654.854 218.063 655.803C226.555 657.29 234.925 659.406 243.103 662.135C248.349 664.356 253.006 666.827 257.663 669.298C258.684 654.007 255.594 617.544 330.7 615.857C352.368 615.511 373.754 620.807 392.757 631.225C401.422 636.6 408.873 643.721 414.636 652.133C420.4 660.545 424.349 670.064 426.234 680.086C428.213 690.747 427.571 701.729 424.363 712.087C421.156 722.445 415.479 731.868 407.821 739.545C397.844 748.553 385.936 755.158 373.011 758.853C360.087 762.548 346.487 763.234 333.256 760.86C320.15 759.329 307.532 754.973 296.273 748.091C285.014 741.21 275.383 731.967 268.043 721.001C264.065 714.341 261.101 707.126 259.25 699.592C252.027 700.245 244.759 700.209 237.542 699.485C233.035 699.004 228.567 698.205 224.171 697.096C216.401 694.939 208.798 692.22 201.422 688.96C194.065 685.689 188.256 681.485 180.931 678.617C177.783 678.518 174.792 677.214 172.577 674.974C170.362 672.734 169.092 669.729 169.027 666.58ZM343.645 733.268C351.94 734.964 360.508 734.796 368.73 732.777C376.952 730.759 384.624 726.939 391.19 721.595C395.219 718.003 398.246 713.425 399.974 708.311C401.703 703.198 402.073 697.723 401.049 692.423C400.388 686.639 398.482 681.066 395.462 676.089C392.443 671.112 388.381 666.848 383.556 663.59C368.928 653.943 352.063 648.224 334.584 646.984C282.505 642.386 283.118 652.681 288.55 682.874C290.03 692.475 293.666 701.617 299.184 709.613C304.645 716.319 311.391 721.867 319.027 725.929C326.662 729.991 335.032 732.486 343.645 733.268Z" fill="#2C2C2E"/>
<path fill-rule="evenodd" clip-rule="evenodd" d="M407.566 513.442C406.313 530.02 398.663 545.462 386.233 556.502C377.78 563.812 367.951 569.358 357.323 572.811C346.695 576.265 335.483 577.557 324.348 576.612C294.423 572.283 266.641 558.578 244.996 537.466C233.697 526.8 226.768 512.313 225.555 496.823C222.098 496.254 218.702 495.369 215.408 494.178C207.49 491.195 199.914 487.376 192.806 482.786C185.789 478.677 181.062 472.764 173.27 469.122C171.632 468.813 170.077 468.167 168.703 467.224C167.329 466.282 166.166 465.064 165.288 463.647C164.411 462.231 163.837 460.647 163.605 458.997C163.372 457.347 163.486 455.667 163.938 454.063C164.39 452.459 165.171 450.967 166.231 449.682C167.292 448.396 168.608 447.345 170.096 446.596C171.584 445.847 173.212 445.416 174.877 445.33C176.541 445.244 178.204 445.505 179.762 446.097C187.156 446.052 194.538 446.689 201.815 448.002C206.306 448.829 210.733 449.969 215.065 451.415C222.017 453.839 228.721 456.553 235.178 459.557C243.186 446.559 254.933 436.284 268.881 430.077C282.828 423.87 298.326 422.022 313.342 424.774C342.696 430.612 369.737 444.81 391.209 465.659C397.195 471.99 401.753 479.532 404.574 487.775C407.396 496.018 408.416 504.771 407.566 513.442ZM309.428 449.623C243.558 434.76 215.522 531.485 316.843 548.408C326.301 550.422 336.1 550.186 345.451 547.719C354.802 545.253 363.442 540.625 370.678 534.209C376.652 528.915 380.476 521.612 381.424 513.687C382.296 510.112 382.4 506.394 381.729 502.776C381.058 499.159 379.627 495.725 377.532 492.701C359.777 471.141 335.619 455.793 308.558 448.88L309.428 449.623Z" fill="#2C2C2E"/>
</g>
<defs>
<clipPath id="clip0_28_1243">
<rect width="762.424" height="762.424" fill="white" transform="matrix(-0.649098 0.760705 0.760705 0.649098 494.888 0)"/>
</clipPath>
</defs>
</svg>
