<svg width="800" height="800" viewBox="0 0 800 800" fill="none" xmlns="http://www.w3.org/2000/svg">
<g opacity="0.5">
<path d="M723.73 504.503C702.067 495.715 679.094 490.586 655.75 489.323C632.02 487.648 608.199 490.906 585.79 498.893C561.253 509.133 540.257 526.343 525.401 548.393C509.805 569.977 501.588 596.017 501.971 622.643C503.144 638.012 507.529 652.964 514.841 666.533L517.151 670.493C501.311 668.843 478.871 666.533 453.791 664.883H417.161H380.531C352.481 666.533 327.731 668.513 311.891 669.833C324.031 643.558 328.493 614.385 324.761 585.683C321.886 567.537 314.268 550.472 302.678 536.217C291.088 521.961 275.938 511.021 258.761 504.503C251.602 501.125 244.214 498.257 236.651 495.923C231.021 483.93 223.685 472.814 214.871 462.923C202.631 448.59 186.8 437.77 169.001 431.573C159.673 428.147 149.884 426.144 139.961 425.633C126.025 425.341 112.095 426.446 98.3805 428.933C91.7805 428.933 73.3005 433.553 60.7605 435.863C57.1305 427.283 52.8406 415.403 48.5506 405.503C58.3202 401.055 68.3482 397.198 78.5805 393.953C129.459 381.077 183.257 386.69 230.381 409.793C278.132 436.266 317.038 476.204 342.251 524.633C344.848 527.057 348.033 528.763 351.491 529.583C357.2 530.067 362.941 530.067 368.651 529.583H389.771V590.963C389.518 597.174 390.662 603.363 393.118 609.074C395.574 614.785 399.279 619.873 403.961 623.963C416.058 633.211 430.981 637.991 446.201 637.493C455.24 637.938 464.253 636.19 472.47 632.397C480.687 628.605 487.865 622.881 493.391 615.713C505.773 596.064 511.124 572.797 508.571 549.713C513.116 505.204 505.593 460.291 486.791 419.693C473.124 395.933 450.952 378.242 424.751 370.193C429.358 360.151 433.218 349.783 436.301 339.173C445.397 344.191 454.761 348.708 464.351 352.703C481.665 362.037 500.749 367.624 520.363 369.102C539.977 370.581 559.683 367.916 578.201 361.283C586.06 358.319 593.173 353.667 599.038 347.655C604.904 341.643 609.379 334.417 612.148 326.487C614.917 318.557 615.913 310.117 615.065 301.76C614.217 293.404 611.546 285.335 607.24 278.123C602.856 271.796 597.231 266.427 590.707 262.343C584.183 258.258 576.897 255.543 569.291 254.363C545.201 249.413 512.861 254.363 498.671 248.753C492.893 246.397 487.708 242.791 483.491 238.193C471.941 225.983 462.371 210.143 452.471 199.913C462.033 197.077 470.984 192.489 478.871 186.383C494.353 173.923 505.168 156.595 509.561 137.213C513.713 118.701 510.934 99.3084 501.752 82.7064C492.569 66.1045 477.619 53.4447 459.731 47.123C442.44 39.4236 423.101 37.6106 404.681 41.9623C386.261 46.314 369.777 56.5899 357.761 71.213C352.553 77.9508 348.331 85.3955 345.221 93.323C342.102 101.354 340.211 109.809 339.611 118.403C338.282 137.333 342.773 156.217 352.481 172.523C346.1 174.034 340.057 176.719 334.661 180.443C313.89 196.789 296.704 217.233 284.171 240.503C260.507 277.092 245.185 318.44 239.291 361.613C238.801 366.551 238.801 371.525 239.291 376.463C186.799 350.628 126.986 343.749 70.0005 356.993C52.2714 362.719 34.96 369.665 18.1906 377.783L11.5906 381.413C9.3096 382.885 7.36779 384.825 5.89402 387.104C4.42025 389.384 3.44824 391.951 3.04251 394.635C2.63679 397.319 2.80663 400.059 3.54075 402.672C4.27488 405.285 5.55651 407.713 7.30055 409.793C15.2206 424.313 27.7605 449.393 31.7205 456.983C34.1144 462.094 37.8855 466.436 42.6105 469.523C47.7809 471.045 53.2802 471.045 58.4505 469.523C69.3405 466.883 94.4206 459.623 102.011 458.303C113.899 455.253 126.057 453.374 138.311 452.693C145.79 452.522 153.251 453.524 160.421 455.663C174.365 459.501 187.018 467.025 197.051 477.443C200.957 481.4 204.492 485.708 207.611 490.313H190.121C166.39 488.638 142.57 491.896 120.161 499.883C95.7143 510.128 74.8257 527.343 60.1005 549.383C44.6766 570.66 36.571 596.367 37.0005 622.643C37.9095 638.016 42.1908 653 49.5405 666.533C56.1405 679.073 107.951 768.833 203.651 751.673C241.511 744.939 275.509 724.352 299.021 693.923C310.571 693.923 342.911 698.213 380.531 700.193H417.161H453.461C488.441 697.883 519.461 694.253 532.661 692.273C547.227 714.218 567.882 731.435 592.091 741.811C616.301 752.186 643.013 755.27 668.951 750.683C689.589 747.01 709.232 739.066 726.621 727.36C744.011 715.653 758.762 700.443 769.93 682.703C786.742 652.606 793.342 617.869 788.741 583.703C785.668 566.011 778.065 549.416 766.672 535.537C755.279 521.657 740.484 510.965 723.73 504.503ZM360.731 506.153C353.731 491.958 345.908 478.184 337.301 464.903C349.181 467.213 360.731 469.193 370.301 471.833C374.286 472.081 378.145 473.329 381.521 475.463C386.988 484.371 389.634 494.724 389.111 505.163H369.311C367.001 505.163 363.701 506.153 360.071 506.153H360.731ZM372.941 121.373C373.672 116.312 375.233 111.406 377.561 106.853C379.87 102.142 382.874 97.8034 386.471 93.983C393.897 85.9503 403.676 80.4746 414.406 78.3405C425.135 76.2064 436.265 77.5235 446.201 82.103C456.749 85.0942 465.876 91.7647 471.93 100.906C477.984 110.047 480.563 121.054 479.201 131.933C477.684 145.703 471.65 158.584 462.041 168.563C456.785 173.996 450.451 178.268 443.444 181.103C436.437 183.939 428.915 185.275 421.36 185.027C413.806 184.778 406.387 182.95 399.582 179.659C392.777 176.369 386.737 171.69 381.851 165.923C372.932 152.907 369.495 136.904 372.281 121.373H372.941ZM306.941 251.393C315.318 233.785 326.459 217.631 339.941 203.543C348.521 195.623 357.431 188.693 366.671 192.653C368.285 193.139 370.006 193.139 371.621 192.653C379.161 198.403 387.774 202.591 396.954 204.971C406.133 207.351 415.696 207.875 425.081 206.513C425.447 207.793 426.077 208.982 426.929 210.005C427.781 211.028 428.838 211.862 430.031 212.453C441.911 220.373 449.831 242.153 463.031 257.993C469.845 266.48 478.546 273.259 488.441 277.793C509.527 282.709 530.913 286.237 552.461 288.353C562.031 290.333 571.271 291.653 574.571 298.253C583.151 313.103 571.271 327.953 549.491 333.563C524.533 338.491 498.694 336.319 474.911 327.293C460.31 323.402 446.237 317.75 433.001 310.463C420.575 302.8 409.437 293.222 400.001 282.083C399.234 280.926 398.233 279.942 397.062 279.197C395.891 278.451 394.576 277.961 393.203 277.756C391.83 277.552 390.43 277.639 389.092 278.011C387.755 278.383 386.511 279.032 385.441 279.916C384.371 280.8 383.498 281.899 382.88 283.142C382.263 284.385 381.913 285.744 381.855 287.131C381.796 288.518 382.03 289.902 382.541 291.193C383.052 292.483 383.829 293.652 384.821 294.623C392.917 306.823 402.568 317.916 413.531 327.623C408.915 342.282 403.065 356.523 396.041 370.193C394.764 373.173 393.769 376.267 393.071 379.433C392.771 382.473 393.621 385.515 395.453 387.958C397.286 390.402 399.968 392.07 402.971 392.633C414.931 395.248 426.177 400.442 435.923 407.851C445.669 415.261 453.682 424.708 459.401 435.533C474.398 472.418 478.964 512.717 472.601 552.023C473.38 565.121 471.121 578.222 466.001 590.303C463.807 594.314 460.472 597.584 456.419 599.699C452.365 601.814 447.776 602.678 443.231 602.183C438.594 602.167 434.003 601.271 429.701 599.543C428.215 599.07 426.912 598.151 425.967 596.911C425.023 595.671 424.483 594.17 424.421 592.613C427.042 560.987 427.042 529.199 424.421 497.573C423.573 480.107 417.22 463.357 406.271 449.723C401.787 445.535 396.515 442.281 390.761 440.153C374.526 435.486 357.986 431.957 341.261 429.593C323.561 428.28 306.816 421.06 293.711 409.092C280.605 397.124 271.9 381.101 268.991 363.593C273.135 323.931 285.859 285.645 306.281 251.393H306.941ZM199.361 726.923C166.361 734.843 115.871 733.193 77.5905 664.553C69.9669 651.854 65.655 637.443 65.0505 622.643C65.9951 602.483 73.3998 583.161 86.1705 567.533C98.063 551.28 114.474 538.886 133.361 531.893C151.451 526.622 170.419 525.051 189.131 527.273C208.195 528.698 226.91 533.154 244.571 540.473C255.755 544.74 265.628 551.858 273.212 561.12C280.795 570.382 285.824 581.467 287.801 593.273C291.917 619.335 287.641 646.031 275.591 669.503C267.593 683.862 256.679 696.389 243.55 706.278C230.422 716.167 215.369 723.199 199.361 726.923ZM739.9 668.513C731.963 682.958 721.123 695.605 708.06 705.657C694.998 715.709 679.997 722.95 664.001 726.923C631.001 734.843 580.841 733.193 542.231 664.553C534.696 651.834 530.497 637.418 530.021 622.643C530.965 602.483 538.37 583.161 551.141 567.533C562.831 550.993 579.127 538.254 598.001 530.903C616.095 525.65 635.059 524.079 653.771 526.283C672.936 527.745 691.753 532.199 709.541 539.483C720.681 543.769 730.504 550.899 738.031 560.163C745.558 569.426 750.526 580.501 752.441 592.283C756.456 618.38 752.064 645.077 739.9 668.513Z" fill="#2C2C2E"/>
<path d="M792.701 465.893C791.452 465.082 790.338 464.08 789.401 462.923L773.891 448.073L740.891 422.663C744.521 412.763 751.12 398.243 751.78 396.593C756.178 387.52 759.928 378.146 763.001 368.543C765.427 360.694 764.839 352.221 761.351 344.783C758.472 338.855 754.02 333.833 748.481 330.263C740.3 325.596 731.533 322.045 722.411 319.703C707.231 316.403 694.361 313.103 680.501 311.453C670.525 310.278 660.446 310.278 650.471 311.453C647.495 311.453 644.641 312.635 642.537 314.739C640.433 316.843 639.251 319.697 639.251 322.673C639.251 325.649 640.433 328.503 642.537 330.607C644.641 332.711 647.495 333.893 650.471 333.893C658.662 334.985 666.729 336.864 674.561 339.503C686.771 343.463 722.411 357.983 726.371 359.633C730.331 361.283 724.061 383.723 723.071 390.323C723.071 390.323 721.421 401.873 720.101 411.443C714.032 408.349 707.745 405.701 701.291 403.523C682.927 397.583 663.821 394.251 644.531 393.623C612.145 392.056 579.892 398.756 550.811 413.093C549.449 413.634 548.211 414.444 547.171 415.474C546.13 416.504 545.307 417.734 544.753 419.09C544.198 420.445 543.923 421.899 543.943 423.363C543.963 424.828 544.279 426.273 544.871 427.613C545.379 429.003 546.165 430.275 547.181 431.351C548.198 432.428 549.423 433.285 550.781 433.872C552.14 434.459 553.605 434.762 555.085 434.764C556.565 434.766 558.03 434.466 559.391 433.883C580.717 427.238 603.171 424.993 625.391 427.283C641.883 428.58 658.227 431.341 674.23 435.533C690.386 438.713 706.191 443.465 721.421 449.723L763.331 469.523L775.211 477.443L782.471 483.053C783.543 483.866 784.766 484.46 786.068 484.799C787.371 485.139 788.727 485.218 790.061 485.033C790.061 485.033 801.611 473.813 792.701 465.893Z" fill="#2C2C2E"/>
<path d="M169.001 561.923C156.018 562.388 143.567 567.192 133.636 575.567C123.705 583.943 116.869 595.405 114.221 608.123C113.169 618.619 114.798 629.21 118.953 638.906C123.108 648.602 129.655 657.085 137.981 663.563C145.121 668.827 153.282 672.542 161.942 674.469C170.601 676.396 179.568 676.493 188.267 674.753C196.965 673.013 205.205 669.475 212.457 664.366C219.709 659.257 225.814 652.689 230.381 645.083C235.067 637.315 237.543 628.415 237.543 619.343C237.543 610.271 235.067 601.371 230.381 593.603C224.074 583.168 215 574.684 204.166 569.092C193.331 563.5 181.159 561.019 169.001 561.923ZM206.951 632.873C205.399 637.87 202.496 642.34 198.563 645.79C194.63 649.24 189.819 651.536 184.663 652.424C179.507 653.312 174.206 652.757 169.345 650.821C164.485 648.885 160.254 645.643 157.121 641.453C153.566 638.134 150.891 633.985 149.336 629.377C147.78 624.769 147.394 619.847 148.211 615.053C150.062 610.315 153.347 606.274 157.607 603.493C161.866 600.712 166.888 599.332 171.971 599.543C177.708 598.702 183.565 599.389 188.953 601.532C194.341 603.676 199.069 607.201 202.661 611.753C205.396 614.586 207.255 618.147 208.016 622.011C208.777 625.874 208.407 629.875 206.951 633.533V632.873Z" fill="#565459"/>
<path d="M633.311 561.923C620.287 562.373 607.789 567.165 597.803 575.536C587.817 583.908 580.917 595.378 578.201 608.123C577.241 618.611 578.912 629.172 583.06 638.852C587.209 648.532 593.705 657.025 601.961 663.563C609.128 668.834 617.315 672.553 626 674.483C634.684 676.413 643.676 676.512 652.401 674.773C661.126 673.034 669.393 669.496 676.674 664.384C683.955 659.272 690.091 652.699 694.691 645.083C699.377 637.315 701.853 628.415 701.853 619.343C701.853 610.271 699.377 601.371 694.691 593.603C688.384 583.168 679.31 574.684 668.476 569.092C657.641 563.5 645.469 561.019 633.311 561.923ZM671.261 632.873C669.709 637.87 666.806 642.34 662.873 645.79C658.94 649.24 654.129 651.536 648.973 652.424C643.817 653.312 638.516 652.757 633.655 650.821C628.795 648.885 624.564 645.643 621.431 641.453C617.876 638.134 615.201 633.985 613.646 629.377C612.09 624.769 611.704 619.847 612.521 615.053C614.372 610.315 617.657 606.274 621.917 603.493C626.176 600.712 631.198 599.332 636.281 599.543C642.018 598.702 647.875 599.389 653.263 601.532C658.651 603.676 663.379 607.201 666.971 611.753C669.637 614.627 671.45 618.187 672.208 622.034C672.965 625.881 672.637 629.862 671.261 633.533V632.873Z" fill="#565459"/>
</g>
</svg>
