<svg width="800" height="800" viewBox="0 0 800 800" fill="none" xmlns="http://www.w3.org/2000/svg">
<g opacity="0.5">
<path d="M224.723 607.3L319.523 610.3C322.149 610.698 324.825 610.036 326.963 608.461C329.101 606.886 330.525 604.526 330.923 601.9C331.321 599.274 330.659 596.598 329.084 594.46C327.509 592.322 325.149 590.898 322.523 590.5L228.023 580H204.323C191.123 589.9 190.523 599.8 208.823 610C214.074 608.829 219.38 607.928 224.723 607.3Z" fill="#565459"/>
<path d="M569.723 598C557.166 596.728 544.542 596.227 531.923 596.5C514.223 596.5 494.723 600.7 468.923 604.3C467.768 604.297 466.624 604.533 465.564 604.992C464.503 605.451 463.549 606.124 462.761 606.969C461.972 607.813 461.367 608.812 460.982 609.901C460.597 610.99 460.441 612.148 460.523 613.3C460.522 614.468 460.757 615.625 461.213 616.7C461.669 617.776 462.336 618.749 463.176 619.56C464.016 620.372 465.011 621.007 466.102 621.426C467.192 621.845 468.356 622.04 469.523 622C491.123 624.1 507.923 627.4 523.823 628.9H546.923H570.323C585.323 628.9 600.323 626.5 619.523 624.7C625.523 616.9 622.823 609.4 610.223 602.2C595.523 601.3 582.323 599.2 569.723 598Z" fill="#565459"/>
<path d="M751.823 676.3C750.682 675.665 749.426 675.262 748.128 675.114C746.83 674.966 745.516 675.077 744.261 675.44C743.006 675.802 741.835 676.409 740.816 677.226C739.797 678.043 738.95 679.054 738.323 680.2C733.823 687.1 731.423 694 723.923 697.9C717.117 700.8 709.634 701.735 702.323 700.6H689.723C675.623 665.2 659.723 628 644.723 589.9C638.123 574.3 631.223 558.4 623.723 542.2C616.223 526 608.723 512.2 600.623 495.4C584.123 463.3 565.523 430 546.923 398.2L555.323 402.1L564.323 406C568.841 407.347 573.454 408.35 578.123 409C591.923 410.8 605.123 409 613.223 411.4C615.69 412.266 618.399 412.122 620.76 410.998C623.121 409.874 624.941 407.861 625.823 405.4C626.289 404.162 626.494 402.841 626.426 401.52C626.358 400.199 626.017 398.907 625.425 397.724C624.834 396.541 624.004 395.493 622.988 394.645C621.973 393.798 620.793 393.17 619.523 392.8C608.798 386.351 597.439 381.023 585.623 376.9C581.042 375.342 576.32 374.237 571.523 373.6H568.223C571.223 365.262 571.223 356.138 568.223 347.8C565.886 340.055 561.407 333.129 555.302 327.821C549.198 322.513 541.717 319.039 533.723 317.8C523.506 316.738 513.442 314.524 503.723 311.2C487.523 306.1 471.923 299.8 463.223 296.5C456.565 276.385 445.612 257.959 431.123 242.5C424.559 236.127 417.316 230.493 409.523 225.7C423.31 224.77 436.64 220.378 448.281 212.933C459.922 205.487 469.497 195.226 476.123 183.1C481.395 172.216 483.803 160.168 483.121 148.094C482.438 136.02 478.687 124.32 472.223 114.1C462.501 93.8415 446.653 77.1541 426.923 66.3999C417.342 62.8182 407.143 61.1863 396.923 61.5999C382.187 62.8691 367.83 66.9421 354.623 73.5999C335.459 84.05 320.746 101.109 313.223 121.6C305.757 141.626 306.294 163.759 314.723 183.4C318.231 190.837 323.355 197.397 329.723 202.6C323.928 203.867 318.293 205.779 312.923 208.3C295.975 215.633 281.275 227.331 270.323 242.2C257.029 262.114 245.39 283.084 235.523 304.9L223.523 326.2C214.462 338.503 206.814 351.787 200.723 365.8C196.191 376.624 193.945 388.267 194.123 400C194.719 413.988 197.977 427.733 203.723 440.5C173.723 437.8 126.023 433.6 102.923 432.4H88.5231C84.7902 432.664 81.2765 434.261 78.6231 436.9C76.2382 439.735 74.7392 443.209 74.3125 446.889C73.8858 450.57 74.5502 454.294 76.2231 457.6C80.6865 467.373 85.6943 476.888 91.2231 486.1C105.023 510.1 125.723 543.4 142.523 567.7C150.546 579.745 159.579 591.086 169.523 601.6C162.323 614.5 156.023 625.9 150.923 636.4C145.823 646.9 145.223 648.7 142.823 654.7C140.423 660.7 138.323 667.3 136.523 673.6C133.823 684.4 132.023 695.5 129.923 707.8L45.9231 712.9C44.7556 712.86 43.592 713.055 42.5015 713.474C41.4111 713.893 40.4163 714.528 39.5764 715.34C38.7365 716.152 38.0687 717.124 37.6128 718.2C37.157 719.275 36.9224 720.432 36.9231 721.6C36.993 723.914 37.9234 726.118 39.5323 727.783C41.1412 729.447 43.313 730.452 45.6231 730.6C84.3231 733.6 119.123 737.8 159.923 739.3H216.923C237.323 739.3 253.523 736.9 274.223 735.1C285.947 734.534 297.277 730.688 306.923 724C315.971 716.83 322.831 707.269 326.723 696.4C327.903 694.043 328.124 691.321 327.341 688.804C326.559 686.288 324.832 684.172 322.523 682.9C321.404 682.271 320.171 681.873 318.896 681.729C317.621 681.585 316.33 681.699 315.099 682.062C313.869 682.426 312.724 683.032 311.731 683.846C310.739 684.66 309.92 685.664 309.323 686.8C304.823 693.7 302.123 700.6 294.923 704.5C287.97 707.241 280.434 708.17 273.023 707.2C252.323 707.2 233.723 705.4 216.023 705.1C198.323 704.8 177.023 705.1 159.323 705.1H154.823C159.023 697.6 162.923 690.4 166.523 683.2C169.458 677.287 171.964 671.171 174.023 664.9C176.423 658.9 177.623 652.6 180.323 646.3C195.623 606.7 197.723 591.1 187.823 576.4C183.323 570.4 175.823 558.4 166.823 544C149.723 517 127.823 481.9 114.623 460H213.923C226.197 475.707 242.463 487.829 261.023 495.1C276.755 501.571 292.083 508.984 306.923 517.3C315.057 521.344 322.459 526.718 328.823 533.2C333.155 542.921 336.765 552.948 339.623 563.2C344.423 581.2 348.623 601.6 350.723 615.4C351.12 626.182 355.072 636.53 361.964 644.832C368.855 653.134 378.298 658.924 388.823 661.3C399.23 663.353 410.005 662.445 419.922 658.68C429.839 654.914 438.501 648.443 444.923 640C451.435 610.449 452.654 579.977 448.523 550C446.597 522.882 441.047 496.145 432.023 470.5C441.623 470.5 454.223 473.5 468.623 474.7H489.623C496.716 475.154 503.83 475.154 510.923 474.7C530.123 472.9 546.323 469.9 555.623 468.7C560.723 482.2 566.123 496.3 571.823 509.2C577.523 522.1 585.923 541 593.123 556.6C614.123 600.4 641.123 650.5 666.623 699.7H645.323H588.323C547.823 699.7 513.023 704.2 474.323 706.3C471.987 706.299 469.742 707.206 468.063 708.829C466.383 710.453 465.401 712.665 465.323 715C465.283 716.167 465.478 717.331 465.897 718.422C466.316 719.512 466.951 720.507 467.763 721.347C468.575 722.187 469.547 722.854 470.623 723.31C471.699 723.766 472.855 724.001 474.023 724C513.023 727 547.523 731.2 588.323 732.7H645.623C666.323 732.7 681.923 730.3 702.623 728.8C714.499 728.514 726.089 725.099 736.223 718.9C745.093 711.627 751.831 702.09 755.723 691.3C756.618 690.109 757.233 688.732 757.522 687.27C757.811 685.809 757.767 684.301 757.392 682.859C757.017 681.417 756.321 680.079 755.357 678.943C754.393 677.807 753.185 676.904 751.823 676.3ZM339.623 133C344.813 120.23 354.241 109.636 366.323 103C374.236 99.2288 382.606 96.5059 391.223 94.9C398.753 93.5517 406.503 94.1717 413.723 96.6999C428.669 103.672 440.9 115.376 448.523 130C453.23 135.732 456.457 142.532 457.922 149.803C459.387 157.073 459.044 164.593 456.923 171.7C452.993 180.727 446.791 188.582 438.923 194.5C428.931 202.605 416.771 207.582 403.964 208.809C391.157 210.037 378.272 207.459 366.923 201.4C354.008 195.983 343.396 186.219 336.923 173.8C332.831 160.324 333.791 145.819 339.623 133ZM414.623 625C414.623 627.1 410.723 628 407.723 628.9C405.048 630.157 402.129 630.809 399.173 630.809C396.217 630.809 393.298 630.157 390.623 628.9C387.869 627.044 385.609 624.543 384.041 621.616C382.472 618.688 381.642 615.421 381.623 612.1C378.375 593.174 374.068 574.444 368.723 556C365.095 542.984 360.274 530.331 354.323 518.2C347.25 509.351 338.478 502.007 328.523 496.6C310.252 485.091 291.091 475.059 271.223 466.6C256.516 461.449 243.532 452.308 233.723 440.2C224.75 427.319 219.744 412.093 219.323 396.4C218.983 388.511 220.312 380.64 223.223 373.3C228.531 361.605 234.961 350.453 242.423 340L254.123 318.1C263.269 296.235 274.206 275.163 286.823 255.1C294.154 242.746 304.469 232.431 316.823 225.1C324.097 221.15 332.246 219.087 340.523 219.1C369.173 223.86 395.726 237.136 416.723 257.2C428.87 270.709 437.976 286.669 443.423 304C444.158 306.895 445.538 309.586 447.46 311.872C449.383 314.158 451.797 315.979 454.523 317.2C459.323 317.2 477.923 327.1 497.723 334C508.601 337.958 519.862 340.773 531.323 342.4C534.46 343.103 537.346 344.648 539.672 346.868C541.998 349.088 543.675 351.899 544.523 355C545.413 357.7 545.365 360.622 544.384 363.291C543.404 365.96 541.55 368.218 539.123 369.7C522.812 377.558 504.411 379.977 486.623 376.6C457.205 373.973 428.525 365.938 402.023 352.9C396.62 349.788 392.32 345.069 389.723 339.4C386.559 332.575 384.532 325.279 383.723 317.8C383.723 311.8 365.423 292.9 353.723 313.6C352.246 316.52 350.943 319.525 349.823 322.6C341.423 342.1 322.223 390.4 318.323 399.7C317.506 401.647 317.086 403.738 317.086 405.85C317.086 407.962 317.506 410.052 318.323 412C320.796 417.548 324.61 422.394 329.423 426.1C354.315 442.052 377.71 460.227 399.323 480.4C407.951 503.357 412.716 527.585 413.423 552.1C417.832 576.168 418.238 600.8 414.623 625ZM504.623 442C493.441 441.102 482.205 441.102 471.023 442C448.523 443.5 429.323 446.8 421.223 447.1C419.717 447.227 418.269 447.744 417.023 448.6C399.023 432.7 369.323 413.5 354.623 401.8L364.223 376.6L369.923 361.3C375.152 368.496 381.915 374.439 389.723 378.7C420.143 392.799 452.878 401.236 486.323 403.6C500.777 404.886 515.342 403.976 529.523 400.9C535.823 416.8 541.823 430.9 548.123 447.1C533.479 444.244 518.633 442.539 503.723 442H504.623Z" fill="#2C2C2E"/>
</g>
</svg>
