<svg width="604" height="687" viewBox="0 0 604 687" fill="none" xmlns="http://www.w3.org/2000/svg">
<path d="M485.752 300.842L404.725 271.573L401.274 270.326L401.428 266.661L401.8 257.807L406.796 258.017L401.8 257.807C402.022 252.516 400.168 244.213 396.704 235.733C393.25 227.281 388.559 219.54 383.794 215.098L387.204 211.441L383.794 215.097C370.052 202.283 355.059 195.33 338.036 189.502C331.963 187.423 325.477 185.447 318.674 183.375C306.785 179.754 293.929 175.838 280.621 170.562L275.853 168.673L273.877 167.89L273.07 165.925L271.121 161.181C271.121 161.181 271.12 161.181 271.12 161.18C266.675 150.371 262.808 140.65 259.34 131.932C251.51 112.25 245.715 97.6802 239.888 87.2489C235.697 79.7475 232.154 74.8756 228.002 71.3026C224.062 67.9116 219.276 65.4369 212.186 63.2429C211.966 63.2814 211.688 63.3354 211.353 63.4087C210.167 63.6683 208.439 64.1327 206.319 64.874C202.079 66.3561 196.391 68.9026 190.404 73.0116C190.404 73.0117 190.404 73.0117 190.404 73.0118L485.752 300.842ZM485.752 300.842C477.832 315.679 476.328 332.795 481.349 347.794C485.385 359.851 493.918 370.775 506.338 376.974C509.335 378.47 512.506 379.657 515.814 380.537C511.975 389.064 507.235 397.949 501.779 406.658C494.797 417.799 486.71 428.656 478.193 438.365C465.285 437.348 446.245 436.052 426.247 436.136C397.336 436.258 364.796 438.109 341.804 452.73L337.584 455.413L340.267 459.632L353.226 480.011L355.909 484.231L360.129 481.548C365.446 478.166 374.968 475.308 387.092 473.321C399.034 471.364 412.888 470.345 426.391 470.288C430.454 470.271 434.475 470.316 438.413 470.408C372.843 505.547 308.858 525.654 195.851 528.809L189.398 528.989L186.725 529.064L185.303 531.328L181.872 536.791C164.436 564.525 131.139 583.166 92.5127 595.32C53.9944 607.439 11.7749 612.769 -20.4639 616.324L-23.5653 616.665L-24.8513 616.806L-25.9074 617.553L-28.4582 619.358L-28.4619 619.36C-37.2148 625.565 -45.6848 632.157 -53.8468 639.115V105.792C1.05072 111.25 54.5926 114.787 108.076 114.938C107.837 115.559 107.611 116.169 107.393 116.765C107.191 117.319 106.997 117.858 106.808 118.385C105.91 120.882 105.116 123.092 104.029 125.261L103.846 125.627L103.724 126.019L108.5 127.5C103.724 126.019 103.724 126.02 103.724 126.021L103.723 126.024L103.721 126.031L103.714 126.052L103.693 126.123C103.675 126.182 103.65 126.265 103.618 126.371C103.556 126.583 103.467 126.888 103.358 127.276C103.141 128.053 102.841 129.169 102.501 130.559C101.822 133.334 100.979 137.227 100.316 141.717C99.0115 150.546 98.3024 162.316 101.414 172.465L102.699 176.659L107.025 175.931L124.831 172.931L130.451 171.984L128.78 166.535C126.164 157.998 127.856 144.147 133.47 132.942L133.56 132.762L133.636 132.576L485.752 300.842ZM60.3611 404.924C62.7034 404.727 65.0811 404.845 67.6123 405.297L60.3611 404.924ZM60.3611 404.924C53.3247 405.513 44.8338 409.026 32.2303 417.272L60.3611 404.924ZM211.966 89.9554L209.146 86.2809L205.267 88.8132C182.25 103.84 169.443 118.817 162.204 133.346C154.989 147.827 153.532 161.445 152.519 173.066L152.135 177.464L156.453 178.389L176.453 182.673L181.989 183.859L182.481 178.219C183.46 167.008 184.542 157.323 189.785 147.321C195.016 137.344 204.673 126.565 223.733 114.122L228.252 111.172L224.966 106.89L211.966 89.9554ZM81.9422 190.224L79.687 185.762L75.2247 188.017C-6.71355 229.421 -36.0914 289.372 -30.6731 339.692C-30.673 339.692 -30.673 339.692 -30.673 339.692L-27.8285 366.137L-26.6505 377.088L-19.1822 368.993L-1.14577 349.443L-1.14546 349.442C13.3522 333.725 23.6 324.602 35.461 319.846C18.2718 353.36 14.0731 374.034 8.79758 404.228L4.00467 431.656L2.02016 443.012L11.6675 436.701L34.9678 421.456L34.968 421.456C47.3883 413.329 55.0179 410.389 60.7782 409.906L60.7795 409.906C61.9977 409.804 63.25 409.805 64.5733 409.926C57.8645 420.597 53.5563 430.825 51.7474 441.671C48.9269 458.573 52.3024 474.562 57.0404 493.313L61.8881 492.088L57.0405 493.313L64.4418 522.599L67.5065 534.726L73.6457 523.829L88.4721 497.511C96.4431 483.369 101.749 477.432 106.535 474.737C111.235 472.091 118.298 470.745 134.051 472.153L139.031 472.597L139.476 467.617L141.624 443.563L142.069 438.583L137.089 438.138C118.888 436.512 103.376 437.323 89.7813 444.976L89.781 444.976C88.2281 445.851 86.7553 446.806 85.35 447.822C85.3762 447.644 85.4039 447.468 85.4332 447.292L85.4333 447.291C86.9075 438.456 91.6083 428.753 104.796 412.658L114.013 401.409L117.829 396.752L112.55 393.856L99.8037 386.865C99.8036 386.865 99.8035 386.864 99.8034 386.864C86.0176 379.301 72.4359 374.659 57.929 375.872C54.8715 376.128 51.89 376.664 48.9681 377.403C53.8037 358.62 61.5593 340.756 81.5828 307.321L92.0944 289.77L96.4469 282.503L87.9813 282.204L67.535 281.482C44.3904 280.666 25.8239 285.905 8.98029 296.193C19.1255 270.372 43.2184 242.453 90.6288 218.497L95.0918 216.242L92.8362 211.779L81.9422 190.224ZM67.5122 514.342L64.9332 518.92L69.2894 521.374L74.137 520.149L72.8496 515.055L84.1163 495.056C92.1268 480.844 97.9985 473.806 104.082 470.381C110.165 466.956 118.525 465.747 134.487 467.172L67.5122 514.342ZM276.816 262.981C278.694 263.637 280.471 264.257 282.131 264.863C281.677 266.875 281.432 268.971 281.432 271.135C281.432 287.996 295.792 300.818 311.854 300.818C324.903 300.818 336.767 292.387 340.806 280.204C344.544 280.506 348.383 280.39 352.602 279.503L357.495 278.474L356.465 273.58L351.491 249.943L350.762 246.477L347.25 246.015C324.227 242.989 295.993 234.528 272.512 224.185C271.584 223.722 270.705 223.642 270.173 223.644C269.444 223.647 268.862 223.802 268.55 223.898C267.915 224.094 267.38 224.375 267.071 224.547C266.394 224.923 265.638 225.436 264.936 225.933C263.934 226.642 262.682 227.579 261.347 228.577C260.78 229.002 260.197 229.438 259.613 229.871C255.436 232.974 250.951 236.14 247.686 237.557L242.237 239.92L245.495 244.886C249.815 251.473 257.828 255.642 265.194 258.678C269.002 260.248 272.948 261.631 276.58 262.899L276.816 262.981ZM521.589 346.417L521.587 346.416C517.839 344.546 515.24 341.447 513.736 336.954C512.369 332.865 512.169 327.861 513.535 322.808C516.306 326.557 518.742 330.298 520.734 333.867C523.742 339.258 525.576 343.973 526.188 347.574C526.173 347.695 526.157 347.816 526.14 347.938C524.361 347.594 522.863 347.053 521.589 346.417Z" stroke="#565459" stroke-opacity="0.4" stroke-width="10"/>
</svg>
